SplineFontDB: 3.2
FontName: FdSymbolF-Book
FullName: FdSymbolF-Book
FamilyName: FdSymbolF
Weight: Book
Copyright: Copyright (c) 2011-2025, Michael Ummels. This Font Software is licensed under the SIL Open Font License, Version 1.1.
Version: 1.010
ItalicAngle: 0
UnderlinePosition: -100
UnderlineWidth: 50
Ascent: 800
Descent: 200
InvalidEm: 0
LayerCount: 2
Layer: 0 0 "Back" 1
Layer: 1 0 "Fore" 0
OS2Version: 0
OS2_WeightWidthSlopeOnly: 0
OS2_UseTypoMetrics: 0
CreationTime: 1739799038
ModificationTime: 1739799038
OS2TypoAscent: 0
OS2TypoAOffset: 1
OS2TypoDescent: 0
OS2TypoDOffset: 1
OS2TypoLinegap: 0
OS2WinAscent: 0
OS2WinAOffset: 1
OS2WinDescent: 0
OS2WinDOffset: 1
HheadAscent: 0
HheadAOffset: 1
HheadDescent: 0
HheadDOffset: 1
OS2Vendor: 'PfEd'
DEI: 91125
Encoding: Custom
UnicodeInterp: none
NameList: AGL For New Fonts
DisplaySize: -48
AntiAlias: 1
FitToEm: 0
BeginPrivate: 2
BlueValues 31 [-10 0 546 556 707 717 754 764]
OtherBlues 11 [-230 -220]
EndPrivate
BeginChars: 256 228

StartChar: parenleft
Encoding: 0 40 0
Width: 439
Flags: HW
HStem: -230 21G<224 319>
VStem: 95 64<106.079 493.921>
LayerCount: 2
Fore
SplineSet
344 -185 m 1
 299 -230 l 1
 149 -100 95 101 95 300 c 0
 95 499 149 700 299 830 c 1
 344 785 l 1
 208 666 159 482 159 300 c 0
 159 118 208 -66 344 -185 c 1
EndSplineSet
EndChar

StartChar: parenleft.big1
Encoding: 1 -1 1
Width: 445
Flags: HW
VStem: 95 64<87.8925 512.108>
LayerCount: 2
Fore
SplineSet
350 -238 m 1
 305 -283 l 1
 147 -137 95 84 95 300 c 0
 95 516 147 737 305 883 c 1
 350 838 l 1
 205 702 159 499 159 300 c 0
 159 101 205 -102 350 -238 c 1
EndSplineSet
EndChar

StartChar: parenleft.big2
Encoding: 2 -1 2
Width: 463
Flags: HW
VStem: 95 64<74.8572 525.143>
LayerCount: 2
Fore
SplineSet
368 -397 m 1
 323 -442 l 1
 141 -245 95 31 95 300 c 0
 95 569 141 845 323 1042 c 1
 368 997 l 1
 200 810 159 551 159 300 c 0
 159 49 200 -210 368 -397 c 1
EndSplineSet
EndChar

StartChar: parenleft.big3
Encoding: 3 -1 3
Width: 487
Flags: HW
VStem: 95 64<75.0115 524.989>
LayerCount: 2
Fore
SplineSet
392 -609 m 1
 347 -654 l 1
 136 -389 95 -39 95 300 c 0
 95 639 136 989 347 1254 c 1
 392 1209 l 1
 196 954 159 622 159 300 c 0
 159 -22 196 -354 392 -609 c 1
EndSplineSet
EndChar

StartChar: parenleft.big4
Encoding: 4 -1 4
Width: 523
Flags: HW
VStem: 95 64<74.2436 525.756>
LayerCount: 2
Fore
SplineSet
428 -927 m 1
 383 -972 l 1
 133 -604 95 -145 95 300 c 0
 95 745 133 1204 383 1572 c 1
 428 1527 l 1
 192 1169 159 728 159 300 c 0
 159 -128 192 -569 428 -927 c 1
EndSplineSet
EndChar

StartChar: parenleft.big5
Encoding: 5 -1 5
Width: 559
Flags: HW
VStem: 95 64<83.1318 516.868>
LayerCount: 2
Fore
SplineSet
464 -1245 m 1
 419 -1290 l 1
 131 -819 95 -252 95 300 c 0
 95 852 131 1419 419 1890 c 1
 464 1845 l 1
 191 1384 159 835 159 300 c 0
 159 -235 191 -784 464 -1245 c 1
EndSplineSet
EndChar

StartChar: parenright
Encoding: 6 41 6
Width: 439
Flags: HW
HStem: -230 21G<120 215>
VStem: 280 64<106.079 493.921>
LayerCount: 2
Fore
SplineSet
95 -185 m 1
 231 -66 280 118 280 300 c 0
 280 482 231 666 95 785 c 1
 140 830 l 1
 290 700 344 499 344 300 c 0
 344 101 290 -100 140 -230 c 1
 95 -185 l 1
EndSplineSet
EndChar

StartChar: parenright.big1
Encoding: 7 -1 7
Width: 445
Flags: HW
VStem: 286 64<87.8925 512.108>
LayerCount: 2
Fore
SplineSet
95 -238 m 1
 240 -102 286 101 286 300 c 0
 286 499 240 702 95 838 c 1
 140 883 l 1
 298 737 350 516 350 300 c 0
 350 84 298 -137 140 -283 c 1
 95 -238 l 1
EndSplineSet
EndChar

StartChar: parenright.big2
Encoding: 8 -1 8
Width: 463
Flags: HW
VStem: 304 64<74.8572 525.143>
LayerCount: 2
Fore
SplineSet
95 -397 m 1
 263 -210 304 49 304 300 c 0
 304 551 263 810 95 997 c 1
 140 1042 l 1
 322 845 368 569 368 300 c 0
 368 31 322 -245 140 -442 c 1
 95 -397 l 1
EndSplineSet
EndChar

StartChar: parenright.big3
Encoding: 9 -1 9
Width: 487
Flags: HW
VStem: 328 64<75.0115 524.989>
LayerCount: 2
Fore
SplineSet
95 -609 m 1
 291 -354 328 -22 328 300 c 0
 328 622 291 954 95 1209 c 1
 140 1254 l 1
 351 989 392 639 392 300 c 0
 392 -39 351 -389 140 -654 c 1
 95 -609 l 1
EndSplineSet
EndChar

StartChar: parenright.big4
Encoding: 10 -1 10
Width: 523
Flags: HW
VStem: 364 64<74.2436 525.756>
LayerCount: 2
Fore
SplineSet
95 -927 m 1
 331 -569 364 -128 364 300 c 0
 364 728 331 1169 95 1527 c 1
 140 1572 l 1
 390 1204 428 745 428 300 c 0
 428 -145 390 -604 140 -972 c 1
 95 -927 l 1
EndSplineSet
EndChar

StartChar: parenright.big5
Encoding: 11 -1 11
Width: 559
Flags: HW
VStem: 400 64<83.1318 516.868>
LayerCount: 2
Fore
SplineSet
95 -1245 m 1
 368 -784 400 -235 400 300 c 0
 400 835 368 1384 95 1845 c 1
 140 1890 l 1
 428 1419 464 852 464 300 c 0
 464 -252 428 -819 140 -1290 c 1
 95 -1245 l 1
EndSplineSet
EndChar

StartChar: uni239B
Encoding: 12 9115 12
Width: 559
Flags: HW
VStem: 92 64<-527 -257.76>
LayerCount: 2
Fore
SplineSet
156 -527 m 1
 92 -527 l 1
 92 -463 l 2
 92 83 127 644 411 1111 c 1
 467 1079 l 1
 190 621 156 71 156 -463 c 2
 156 -527 l 1
EndSplineSet
EndChar

StartChar: uni239E
Encoding: 13 9118 13
Width: 559
Flags: HW
VStem: 403 64<-527 -257.76>
LayerCount: 2
Fore
SplineSet
403 -527 m 1
 403 -463 l 2
 403 71 369 621 92 1079 c 1
 148 1111 l 1
 432 644 467 83 467 -463 c 2
 467 -527 l 1
 403 -527 l 1
EndSplineSet
EndChar

StartChar: uni239D
Encoding: 14 9117 14
Width: 559
Flags: HW
VStem: 92 64<857.76 1127>
LayerCount: 2
Fore
SplineSet
467 -479 m 1
 411 -511 l 1
 127 -44 92 517 92 1063 c 2
 92 1127 l 1
 156 1127 l 1
 156 1063 l 2
 156 529 190 -21 467 -479 c 1
EndSplineSet
EndChar

StartChar: uni23A0
Encoding: 15 9120 15
Width: 559
Flags: HW
VStem: 403 64<857.76 1127>
LayerCount: 2
Fore
SplineSet
92 -479 m 1
 369 -21 403 529 403 1063 c 2
 403 1127 l 1
 467 1127 l 1
 467 1063 l 2
 467 517 432 -44 148 -511 c 1
 92 -479 l 1
EndSplineSet
EndChar

StartChar: uni239C
Encoding: 16 9116 16
Width: 559
Flags: HW
VStem: 95 64<109 491>
LayerCount: 2
Fore
SplineSet
159 491 m 1
 159 109 l 1
 95 109 l 1
 95 491 l 1
 159 491 l 1
EndSplineSet
EndChar

StartChar: uni239F
Encoding: 17 9119 17
Width: 559
Flags: HW
VStem: 400 64<109 491>
LayerCount: 2
Fore
SplineSet
400 491 m 1
 464 491 l 1
 464 109 l 1
 400 109 l 1
 400 491 l 1
EndSplineSet
EndChar

StartChar: bracketleft
Encoding: 18 91 18
Width: 424
Flags: HW
HStem: -230 64<154 334> 766 64<154 334>
VStem: 90 64<-166 766>
LayerCount: 2
Fore
SplineSet
154 766 m 1
 154 -166 l 1
 334 -166 l 1
 334 -230 l 1
 90 -230 l 1
 90 830 l 1
 334 830 l 1
 334 766 l 1
 154 766 l 1
EndSplineSet
EndChar

StartChar: bracketleft.big1
Encoding: 19 -1 19
Width: 436
Flags: HW
HStem: -336 64<154 346> 872 64<154 346>
VStem: 90 64<-272 872>
LayerCount: 2
Fore
SplineSet
154 872 m 1
 154 -272 l 1
 346 -272 l 1
 346 -336 l 1
 90 -336 l 1
 90 936 l 1
 346 936 l 1
 346 872 l 1
 154 872 l 1
EndSplineSet
EndChar

StartChar: bracketleft.big2
Encoding: 20 -1 20
Width: 454
Flags: HW
HStem: -495 64<154 364> 1031 64<154 364>
VStem: 90 64<-431 1031>
LayerCount: 2
Fore
SplineSet
154 1031 m 1
 154 -431 l 1
 364 -431 l 1
 364 -495 l 1
 90 -495 l 1
 90 1095 l 1
 364 1095 l 1
 364 1031 l 1
 154 1031 l 1
EndSplineSet
EndChar

StartChar: bracketleft.big3
Encoding: 21 -1 21
Width: 472
Flags: HW
HStem: -654 64<154 382> 1190 64<154 382>
VStem: 90 64<-590 1190>
LayerCount: 2
Fore
SplineSet
154 1190 m 1
 154 -590 l 1
 382 -590 l 1
 382 -654 l 1
 90 -654 l 1
 90 1254 l 1
 382 1254 l 1
 382 1190 l 1
 154 1190 l 1
EndSplineSet
EndChar

StartChar: bracketleft.big4
Encoding: 22 -1 22
Width: 508
Flags: HW
HStem: -972 64<154 418> 1508 64<154 418>
VStem: 90 64<-908 1508>
LayerCount: 2
Fore
SplineSet
154 1508 m 1
 154 -908 l 1
 418 -908 l 1
 418 -972 l 1
 90 -972 l 1
 90 1572 l 1
 418 1572 l 1
 418 1508 l 1
 154 1508 l 1
EndSplineSet
EndChar

StartChar: bracketleft.big5
Encoding: 23 -1 23
Width: 544
Flags: HW
HStem: -1290 64<154 454> 1826 64<154 454>
VStem: 90 64<-1226 1826>
LayerCount: 2
Fore
SplineSet
154 1826 m 1
 154 -1226 l 1
 454 -1226 l 1
 454 -1290 l 1
 90 -1290 l 1
 90 1890 l 1
 454 1890 l 1
 454 1826 l 1
 154 1826 l 1
EndSplineSet
EndChar

StartChar: bracketright
Encoding: 24 93 24
Width: 424
Flags: HW
HStem: -230 64<90 270> 766 64<90 270>
VStem: 270 64<-166 766>
LayerCount: 2
Fore
SplineSet
334 830 m 1
 334 -230 l 1
 90 -230 l 1
 90 -166 l 1
 270 -166 l 1
 270 766 l 1
 90 766 l 1
 90 830 l 1
 334 830 l 1
EndSplineSet
EndChar

StartChar: bracketright.big1
Encoding: 25 -1 25
Width: 436
Flags: HW
HStem: -336 64<90 282> 872 64<90 282>
VStem: 282 64<-272 872>
LayerCount: 2
Fore
SplineSet
346 936 m 1
 346 -336 l 1
 90 -336 l 1
 90 -272 l 1
 282 -272 l 1
 282 872 l 1
 90 872 l 1
 90 936 l 1
 346 936 l 1
EndSplineSet
EndChar

StartChar: bracketright.big2
Encoding: 26 -1 26
Width: 454
Flags: HW
HStem: -495 64<90 300> 1031 64<90 300>
VStem: 300 64<-431 1031>
LayerCount: 2
Fore
SplineSet
364 1095 m 1
 364 -495 l 1
 90 -495 l 1
 90 -431 l 1
 300 -431 l 1
 300 1031 l 1
 90 1031 l 1
 90 1095 l 1
 364 1095 l 1
EndSplineSet
EndChar

StartChar: bracketright.big3
Encoding: 27 -1 27
Width: 472
Flags: HW
HStem: -654 64<90 318> 1190 64<90 318>
VStem: 318 64<-590 1190>
LayerCount: 2
Fore
SplineSet
382 1254 m 1
 382 -654 l 1
 90 -654 l 1
 90 -590 l 1
 318 -590 l 1
 318 1190 l 1
 90 1190 l 1
 90 1254 l 1
 382 1254 l 1
EndSplineSet
EndChar

StartChar: bracketright.big4
Encoding: 28 -1 28
Width: 508
Flags: HW
HStem: -972 64<90 354> 1508 64<90 354>
VStem: 354 64<-908 1508>
LayerCount: 2
Fore
SplineSet
418 1572 m 1
 418 -972 l 1
 90 -972 l 1
 90 -908 l 1
 354 -908 l 1
 354 1508 l 1
 90 1508 l 1
 90 1572 l 1
 418 1572 l 1
EndSplineSet
EndChar

StartChar: bracketright.big5
Encoding: 29 -1 29
Width: 544
Flags: HW
HStem: -1290 64<90 390> 1826 64<90 390>
VStem: 390 64<-1226 1826>
LayerCount: 2
Fore
SplineSet
454 1890 m 1
 454 -1290 l 1
 90 -1290 l 1
 90 -1226 l 1
 390 -1226 l 1
 390 1826 l 1
 90 1826 l 1
 90 1890 l 1
 454 1890 l 1
EndSplineSet
EndChar

StartChar: uni230A
Encoding: 30 8970 30
Width: 424
Flags: HW
HStem: -230 64<154 334>
VStem: 90 64<-166 862>
LayerCount: 2
Fore
SplineSet
154 -166 m 1
 334 -166 l 1
 334 -230 l 1
 90 -230 l 1
 90 862 l 1
 154 862 l 1
 154 -166 l 1
EndSplineSet
EndChar

StartChar: uni230A.big1
Encoding: 31 -1 31
Width: 436
Flags: HW
HStem: -336 64<154 346>
VStem: 90 64<-272 968>
LayerCount: 2
Fore
SplineSet
154 -272 m 1
 346 -272 l 1
 346 -336 l 1
 90 -336 l 1
 90 968 l 1
 154 968 l 1
 154 -272 l 1
EndSplineSet
EndChar

StartChar: uni230A.big2
Encoding: 32 -1 32
Width: 454
Flags: HW
HStem: -495 64<154 364>
VStem: 90 64<-431 1127>
LayerCount: 2
Fore
SplineSet
154 -431 m 1
 364 -431 l 1
 364 -495 l 1
 90 -495 l 1
 90 1127 l 1
 154 1127 l 1
 154 -431 l 1
EndSplineSet
EndChar

StartChar: uni230A.big3
Encoding: 33 -1 33
Width: 472
Flags: HW
HStem: -654 64<154 382>
VStem: 90 64<-590 1286>
LayerCount: 2
Fore
SplineSet
154 -590 m 1
 382 -590 l 1
 382 -654 l 1
 90 -654 l 1
 90 1286 l 1
 154 1286 l 1
 154 -590 l 1
EndSplineSet
EndChar

StartChar: uni230A.big4
Encoding: 34 -1 34
Width: 508
Flags: HW
HStem: -972 64<154 418>
VStem: 90 64<-908 1604>
LayerCount: 2
Fore
SplineSet
154 -908 m 1
 418 -908 l 1
 418 -972 l 1
 90 -972 l 1
 90 1604 l 1
 154 1604 l 1
 154 -908 l 1
EndSplineSet
EndChar

StartChar: uni230A.big5
Encoding: 35 -1 35
Width: 544
Flags: HW
HStem: -1290 64<154 454>
VStem: 90 64<-1226 1922>
LayerCount: 2
Fore
SplineSet
154 -1226 m 1
 454 -1226 l 1
 454 -1290 l 1
 90 -1290 l 1
 90 1922 l 1
 154 1922 l 1
 154 -1226 l 1
EndSplineSet
EndChar

StartChar: uni230B
Encoding: 36 8971 36
Width: 424
Flags: HW
HStem: -230 64<90 270>
VStem: 270 64<-166 862>
LayerCount: 2
Fore
SplineSet
334 -230 m 1
 90 -230 l 1
 90 -166 l 1
 270 -166 l 1
 270 862 l 1
 334 862 l 1
 334 -230 l 1
EndSplineSet
EndChar

StartChar: uni230B.big1
Encoding: 37 -1 37
Width: 436
Flags: HW
HStem: -336 64<90 282>
VStem: 282 64<-272 968>
LayerCount: 2
Fore
SplineSet
346 -336 m 1
 90 -336 l 1
 90 -272 l 1
 282 -272 l 1
 282 968 l 1
 346 968 l 1
 346 -336 l 1
EndSplineSet
EndChar

StartChar: uni230B.big2
Encoding: 38 -1 38
Width: 454
Flags: HW
HStem: -495 64<90 300>
VStem: 300 64<-431 1127>
LayerCount: 2
Fore
SplineSet
364 -495 m 1
 90 -495 l 1
 90 -431 l 1
 300 -431 l 1
 300 1127 l 1
 364 1127 l 1
 364 -495 l 1
EndSplineSet
EndChar

StartChar: uni230B.big3
Encoding: 39 -1 39
Width: 472
Flags: HW
HStem: -654 64<90 318>
VStem: 318 64<-590 1286>
LayerCount: 2
Fore
SplineSet
382 -654 m 1
 90 -654 l 1
 90 -590 l 1
 318 -590 l 1
 318 1286 l 1
 382 1286 l 1
 382 -654 l 1
EndSplineSet
EndChar

StartChar: uni230B.big4
Encoding: 40 -1 40
Width: 508
Flags: HW
HStem: -972 64<90 354>
VStem: 354 64<-908 1604>
LayerCount: 2
Fore
SplineSet
418 -972 m 1
 90 -972 l 1
 90 -908 l 1
 354 -908 l 1
 354 1604 l 1
 418 1604 l 1
 418 -972 l 1
EndSplineSet
EndChar

StartChar: uni230B.big5
Encoding: 41 -1 41
Width: 544
Flags: HW
HStem: -1290 64<90 390>
VStem: 390 64<-1226 1922>
LayerCount: 2
Fore
SplineSet
454 -1290 m 1
 90 -1290 l 1
 90 -1226 l 1
 390 -1226 l 1
 390 1922 l 1
 454 1922 l 1
 454 -1290 l 1
EndSplineSet
EndChar

StartChar: uni2308
Encoding: 42 8968 42
Width: 424
Flags: HW
HStem: 766 64<154 334>
VStem: 90 64<-262 766>
LayerCount: 2
Fore
SplineSet
154 -262 m 1
 90 -262 l 1
 90 830 l 1
 334 830 l 1
 334 766 l 1
 154 766 l 1
 154 -262 l 1
EndSplineSet
EndChar

StartChar: uni2308.big1
Encoding: 43 -1 43
Width: 436
Flags: HW
HStem: 872 64<154 346>
VStem: 90 64<-368 872>
LayerCount: 2
Fore
SplineSet
154 -368 m 1
 90 -368 l 1
 90 936 l 1
 346 936 l 1
 346 872 l 1
 154 872 l 1
 154 -368 l 1
EndSplineSet
EndChar

StartChar: uni2308.big2
Encoding: 44 -1 44
Width: 454
Flags: HW
HStem: 1031 64<154 364>
VStem: 90 64<-527 1031>
LayerCount: 2
Fore
SplineSet
154 -527 m 1
 90 -527 l 1
 90 1095 l 1
 364 1095 l 1
 364 1031 l 1
 154 1031 l 1
 154 -527 l 1
EndSplineSet
EndChar

StartChar: uni2308.big3
Encoding: 45 -1 45
Width: 472
Flags: HW
HStem: 1190 64<154 382>
VStem: 90 64<-686 1190>
LayerCount: 2
Fore
SplineSet
154 -686 m 1
 90 -686 l 1
 90 1254 l 1
 382 1254 l 1
 382 1190 l 1
 154 1190 l 1
 154 -686 l 1
EndSplineSet
EndChar

StartChar: uni2308.big4
Encoding: 46 -1 46
Width: 508
Flags: HW
HStem: 1508 64<154 418>
VStem: 90 64<-1004 1508>
LayerCount: 2
Fore
SplineSet
154 -1004 m 1
 90 -1004 l 1
 90 1572 l 1
 418 1572 l 1
 418 1508 l 1
 154 1508 l 1
 154 -1004 l 1
EndSplineSet
EndChar

StartChar: uni2308.big5
Encoding: 47 -1 47
Width: 544
Flags: HW
HStem: 1826 64<154 454>
VStem: 90 64<-1322 1826>
LayerCount: 2
Fore
SplineSet
154 -1322 m 1
 90 -1322 l 1
 90 1890 l 1
 454 1890 l 1
 454 1826 l 1
 154 1826 l 1
 154 -1322 l 1
EndSplineSet
EndChar

StartChar: uni2309
Encoding: 48 8969 48
Width: 424
Flags: HW
HStem: 766 64<90 270>
VStem: 270 64<-262 766>
LayerCount: 2
Fore
SplineSet
334 830 m 1
 334 -262 l 1
 270 -262 l 1
 270 766 l 1
 90 766 l 1
 90 830 l 1
 334 830 l 1
EndSplineSet
EndChar

StartChar: uni2309.big1
Encoding: 49 -1 49
Width: 436
Flags: HW
HStem: 872 64<90 282>
VStem: 282 64<-368 872>
LayerCount: 2
Fore
SplineSet
346 936 m 1
 346 -368 l 1
 282 -368 l 1
 282 872 l 1
 90 872 l 1
 90 936 l 1
 346 936 l 1
EndSplineSet
EndChar

StartChar: uni2309.big2
Encoding: 50 -1 50
Width: 454
Flags: HW
HStem: 1031 64<90 300>
VStem: 300 64<-527 1031>
LayerCount: 2
Fore
SplineSet
364 1095 m 1
 364 -527 l 1
 300 -527 l 1
 300 1031 l 1
 90 1031 l 1
 90 1095 l 1
 364 1095 l 1
EndSplineSet
EndChar

StartChar: uni2309.big3
Encoding: 51 -1 51
Width: 472
Flags: HW
HStem: 1190 64<90 318>
VStem: 318 64<-686 1190>
LayerCount: 2
Fore
SplineSet
382 1254 m 1
 382 -686 l 1
 318 -686 l 1
 318 1190 l 1
 90 1190 l 1
 90 1254 l 1
 382 1254 l 1
EndSplineSet
EndChar

StartChar: uni2309.big4
Encoding: 52 -1 52
Width: 508
Flags: HW
HStem: 1508 64<90 354>
VStem: 354 64<-1004 1508>
LayerCount: 2
Fore
SplineSet
418 1572 m 1
 418 -1004 l 1
 354 -1004 l 1
 354 1508 l 1
 90 1508 l 1
 90 1572 l 1
 418 1572 l 1
EndSplineSet
EndChar

StartChar: uni2309.big5
Encoding: 53 -1 53
Width: 544
Flags: HW
HStem: 1826 64<90 390>
VStem: 390 64<-1322 1826>
LayerCount: 2
Fore
SplineSet
454 1890 m 1
 454 -1322 l 1
 390 -1322 l 1
 390 1826 l 1
 90 1826 l 1
 90 1890 l 1
 454 1890 l 1
EndSplineSet
EndChar

StartChar: uni231C
Encoding: 54 8988 54
Width: 424
Flags: HW
HStem: 766 64<154 334>
VStem: 90 64<586 766>
LayerCount: 2
Fore
SplineSet
90 830 m 1
 334 830 l 1
 334 766 l 1
 154 766 l 1
 154 586 l 1
 90 586 l 1
 90 830 l 1
EndSplineSet
EndChar

StartChar: uni231C.big1
Encoding: 55 -1 55
Width: 436
Flags: HW
HStem: 872 64<154 346>
VStem: 90 64<680 872>
LayerCount: 2
Fore
SplineSet
90 936 m 1
 346 936 l 1
 346 872 l 1
 154 872 l 1
 154 680 l 1
 90 680 l 1
 90 936 l 1
EndSplineSet
EndChar

StartChar: uni231C.big2
Encoding: 56 -1 56
Width: 454
Flags: HW
HStem: 1031 64<154 364>
VStem: 90 64<821 1031>
LayerCount: 2
Fore
SplineSet
90 1095 m 1
 364 1095 l 1
 364 1031 l 1
 154 1031 l 1
 154 821 l 1
 90 821 l 1
 90 1095 l 1
EndSplineSet
EndChar

StartChar: uni231C.big3
Encoding: 57 -1 57
Width: 472
Flags: HW
HStem: 1190 64<154 382>
VStem: 90 64<962 1190>
LayerCount: 2
Fore
SplineSet
90 1254 m 1
 382 1254 l 1
 382 1190 l 1
 154 1190 l 1
 154 962 l 1
 90 962 l 1
 90 1254 l 1
EndSplineSet
EndChar

StartChar: uni231C.big4
Encoding: 58 -1 58
Width: 508
Flags: HW
HStem: 1508 64<154 418>
VStem: 90 64<1244 1508>
LayerCount: 2
Fore
SplineSet
90 1572 m 1
 418 1572 l 1
 418 1508 l 1
 154 1508 l 1
 154 1244 l 1
 90 1244 l 1
 90 1572 l 1
EndSplineSet
EndChar

StartChar: uni231C.big5
Encoding: 59 -1 59
Width: 544
Flags: HW
HStem: 1826 64<154 454>
VStem: 90 64<1526 1826>
LayerCount: 2
Fore
SplineSet
90 1890 m 1
 454 1890 l 1
 454 1826 l 1
 154 1826 l 1
 154 1526 l 1
 90 1526 l 1
 90 1890 l 1
EndSplineSet
EndChar

StartChar: uni231D
Encoding: 60 8989 60
Width: 424
Flags: HW
HStem: 766 64<90 270>
VStem: 270 64<586 766>
LayerCount: 2
Fore
SplineSet
270 766 m 1
 90 766 l 1
 90 830 l 1
 334 830 l 1
 334 586 l 1
 270 586 l 1
 270 766 l 1
EndSplineSet
EndChar

StartChar: uni231D.big1
Encoding: 61 -1 61
Width: 436
Flags: HW
HStem: 872 64<90 282>
VStem: 282 64<680 872>
LayerCount: 2
Fore
SplineSet
282 872 m 1
 90 872 l 1
 90 936 l 1
 346 936 l 1
 346 680 l 1
 282 680 l 1
 282 872 l 1
EndSplineSet
EndChar

StartChar: uni231D.big2
Encoding: 62 -1 62
Width: 454
Flags: HW
HStem: 1031 64<90 300>
VStem: 300 64<821 1031>
LayerCount: 2
Fore
SplineSet
300 1031 m 1
 90 1031 l 1
 90 1095 l 1
 364 1095 l 1
 364 821 l 1
 300 821 l 1
 300 1031 l 1
EndSplineSet
EndChar

StartChar: uni231D.big3
Encoding: 63 -1 63
Width: 472
Flags: HW
HStem: 1190 64<90 318>
VStem: 318 64<962 1190>
LayerCount: 2
Fore
SplineSet
318 1190 m 1
 90 1190 l 1
 90 1254 l 1
 382 1254 l 1
 382 962 l 1
 318 962 l 1
 318 1190 l 1
EndSplineSet
EndChar

StartChar: uni231D.big4
Encoding: 64 -1 64
Width: 508
Flags: HW
HStem: 1508 64<90 354>
VStem: 354 64<1244 1508>
LayerCount: 2
Fore
SplineSet
354 1508 m 1
 90 1508 l 1
 90 1572 l 1
 418 1572 l 1
 418 1244 l 1
 354 1244 l 1
 354 1508 l 1
EndSplineSet
EndChar

StartChar: uni231D.big5
Encoding: 65 -1 65
Width: 544
Flags: HW
HStem: 1826 64<90 390>
VStem: 390 64<1526 1826>
LayerCount: 2
Fore
SplineSet
390 1826 m 1
 90 1826 l 1
 90 1890 l 1
 454 1890 l 1
 454 1526 l 1
 390 1526 l 1
 390 1826 l 1
EndSplineSet
EndChar

StartChar: uni231E
Encoding: 66 8990 66
Width: 424
Flags: HW
HStem: -230 64<154 334>
VStem: 90 64<-166 14>
LayerCount: 2
Fore
SplineSet
154 -166 m 1
 334 -166 l 1
 334 -230 l 1
 90 -230 l 1
 90 14 l 1
 154 14 l 1
 154 -166 l 1
EndSplineSet
EndChar

StartChar: uni231E.big1
Encoding: 67 -1 67
Width: 436
Flags: HW
HStem: -336 64<154 346>
VStem: 90 64<-272 -80>
LayerCount: 2
Fore
SplineSet
154 -272 m 1
 346 -272 l 1
 346 -336 l 1
 90 -336 l 1
 90 -80 l 1
 154 -80 l 1
 154 -272 l 1
EndSplineSet
EndChar

StartChar: uni231E.big2
Encoding: 68 -1 68
Width: 454
Flags: HW
HStem: -495 64<154 364> -241 20G<90 154>
VStem: 90 64<-431 -221>
LayerCount: 2
Fore
SplineSet
154 -431 m 1
 364 -431 l 1
 364 -495 l 1
 90 -495 l 1
 90 -221 l 1
 154 -221 l 1
 154 -431 l 1
EndSplineSet
EndChar

StartChar: uni231E.big3
Encoding: 69 -1 69
Width: 472
Flags: HW
HStem: -654 64<154 382>
VStem: 90 64<-590 -362>
LayerCount: 2
Fore
SplineSet
154 -590 m 1
 382 -590 l 1
 382 -654 l 1
 90 -654 l 1
 90 -362 l 1
 154 -362 l 1
 154 -590 l 1
EndSplineSet
EndChar

StartChar: uni231E.big4
Encoding: 70 -1 70
Width: 508
Flags: HW
HStem: -972 64<154 418>
VStem: 90 64<-908 -644>
LayerCount: 2
Fore
SplineSet
154 -908 m 1
 418 -908 l 1
 418 -972 l 1
 90 -972 l 1
 90 -644 l 1
 154 -644 l 1
 154 -908 l 1
EndSplineSet
EndChar

StartChar: uni231E.big5
Encoding: 71 -1 71
Width: 544
Flags: HW
HStem: -1290 64<154 454>
VStem: 90 64<-1226 -926>
LayerCount: 2
Fore
SplineSet
154 -1226 m 1
 454 -1226 l 1
 454 -1290 l 1
 90 -1290 l 1
 90 -926 l 1
 154 -926 l 1
 154 -1226 l 1
EndSplineSet
EndChar

StartChar: uni231F
Encoding: 72 8991 72
Width: 424
Flags: HW
HStem: -230 64<90 270>
VStem: 270 64<-166 14>
LayerCount: 2
Fore
SplineSet
334 -230 m 1
 90 -230 l 1
 90 -166 l 1
 270 -166 l 1
 270 14 l 1
 334 14 l 1
 334 -230 l 1
EndSplineSet
EndChar

StartChar: uni231F.big1
Encoding: 73 -1 73
Width: 436
Flags: HW
HStem: -336 64<90 282>
VStem: 282 64<-272 -80>
LayerCount: 2
Fore
SplineSet
346 -336 m 1
 90 -336 l 1
 90 -272 l 1
 282 -272 l 1
 282 -80 l 1
 346 -80 l 1
 346 -336 l 1
EndSplineSet
EndChar

StartChar: uni231F.big2
Encoding: 74 -1 74
Width: 454
Flags: HW
HStem: -495 64<90 300> -241 20G<300 364>
VStem: 300 64<-431 -221>
LayerCount: 2
Fore
SplineSet
364 -495 m 1
 90 -495 l 1
 90 -431 l 1
 300 -431 l 1
 300 -221 l 1
 364 -221 l 1
 364 -495 l 1
EndSplineSet
EndChar

StartChar: uni231F.big3
Encoding: 75 -1 75
Width: 472
Flags: HW
HStem: -654 64<90 318>
VStem: 318 64<-590 -362>
LayerCount: 2
Fore
SplineSet
382 -654 m 1
 90 -654 l 1
 90 -590 l 1
 318 -590 l 1
 318 -362 l 1
 382 -362 l 1
 382 -654 l 1
EndSplineSet
EndChar

StartChar: uni231F.big4
Encoding: 76 -1 76
Width: 508
Flags: HW
HStem: -972 64<90 354>
VStem: 354 64<-908 -644>
LayerCount: 2
Fore
SplineSet
418 -972 m 1
 90 -972 l 1
 90 -908 l 1
 354 -908 l 1
 354 -644 l 1
 418 -644 l 1
 418 -972 l 1
EndSplineSet
EndChar

StartChar: uni231F.big5
Encoding: 77 -1 77
Width: 544
Flags: HW
HStem: -1290 64<90 390>
VStem: 390 64<-1226 -926>
LayerCount: 2
Fore
SplineSet
454 -1290 m 1
 90 -1290 l 1
 90 -1226 l 1
 390 -1226 l 1
 390 -926 l 1
 454 -926 l 1
 454 -1290 l 1
EndSplineSet
EndChar

StartChar: sym0A0
Encoding: 78 -1 78
Width: 424
Flags: HW
HStem: -230 64<154 334> 766 64<154 334>
VStem: 90 64<-166 14 586 766>
LayerCount: 2
Fore
SplineSet
154 -166 m 1
 334 -166 l 1
 334 -230 l 1
 90 -230 l 1
 90 14 l 1
 154 14 l 1
 154 -166 l 1
90 830 m 1
 334 830 l 1
 334 766 l 1
 154 766 l 1
 154 586 l 1
 90 586 l 1
 90 830 l 1
EndSplineSet
EndChar

StartChar: sym0A0.big1
Encoding: 79 -1 79
Width: 436
Flags: HW
HStem: -336 64<154 346> 872 64<154 346>
VStem: 90 64<-272 -80 680 872>
LayerCount: 2
Fore
SplineSet
154 -272 m 1
 346 -272 l 1
 346 -336 l 1
 90 -336 l 1
 90 -80 l 1
 154 -80 l 1
 154 -272 l 1
90 936 m 1
 346 936 l 1
 346 872 l 1
 154 872 l 1
 154 680 l 1
 90 680 l 1
 90 936 l 1
EndSplineSet
EndChar

StartChar: sym0A0.big2
Encoding: 80 -1 80
Width: 454
Flags: HW
HStem: -495 64<154 364> -241 20G<90 154> 1031 64<154 364>
VStem: 90 64<-431 -221 821 1031>
LayerCount: 2
Fore
SplineSet
154 -431 m 1
 364 -431 l 1
 364 -495 l 1
 90 -495 l 1
 90 -221 l 1
 154 -221 l 1
 154 -431 l 1
90 1095 m 1
 364 1095 l 1
 364 1031 l 1
 154 1031 l 1
 154 821 l 1
 90 821 l 1
 90 1095 l 1
EndSplineSet
EndChar

StartChar: sym0A0.big3
Encoding: 81 -1 81
Width: 472
Flags: HW
HStem: -654 64<154 382> 1190 64<154 382>
VStem: 90 64<-590 -362 962 1190>
LayerCount: 2
Fore
SplineSet
154 -590 m 1
 382 -590 l 1
 382 -654 l 1
 90 -654 l 1
 90 -362 l 1
 154 -362 l 1
 154 -590 l 1
90 1254 m 1
 382 1254 l 1
 382 1190 l 1
 154 1190 l 1
 154 962 l 1
 90 962 l 1
 90 1254 l 1
EndSplineSet
EndChar

StartChar: sym0A0.big4
Encoding: 82 -1 82
Width: 508
Flags: HW
HStem: -972 64<154 418> 1508 64<154 418>
VStem: 90 64<-908 -644 1244 1508>
LayerCount: 2
Fore
SplineSet
154 -908 m 1
 418 -908 l 1
 418 -972 l 1
 90 -972 l 1
 90 -644 l 1
 154 -644 l 1
 154 -908 l 1
90 1572 m 1
 418 1572 l 1
 418 1508 l 1
 154 1508 l 1
 154 1244 l 1
 90 1244 l 1
 90 1572 l 1
EndSplineSet
EndChar

StartChar: sym0A0.big5
Encoding: 83 -1 83
Width: 544
Flags: HW
HStem: -1290 64<154 454> 1826 64<154 454>
VStem: 90 64<-1226 -926 1526 1826>
LayerCount: 2
Fore
SplineSet
154 -1226 m 1
 454 -1226 l 1
 454 -1290 l 1
 90 -1290 l 1
 90 -926 l 1
 154 -926 l 1
 154 -1226 l 1
90 1890 m 1
 454 1890 l 1
 454 1826 l 1
 154 1826 l 1
 154 1526 l 1
 90 1526 l 1
 90 1890 l 1
EndSplineSet
EndChar

StartChar: sym0A1
Encoding: 84 -1 84
Width: 424
Flags: HW
HStem: -230 64<90 270> 766 64<90 270>
VStem: 270 64<-166 14 586 766>
LayerCount: 2
Fore
SplineSet
334 -230 m 1
 90 -230 l 1
 90 -166 l 1
 270 -166 l 1
 270 14 l 1
 334 14 l 1
 334 -230 l 1
270 766 m 1
 90 766 l 1
 90 830 l 1
 334 830 l 1
 334 586 l 1
 270 586 l 1
 270 766 l 1
EndSplineSet
EndChar

StartChar: sym0A1.big1
Encoding: 85 -1 85
Width: 436
Flags: HW
HStem: -336 64<90 282> 872 64<90 282>
VStem: 282 64<-272 -80 680 872>
LayerCount: 2
Fore
SplineSet
346 -336 m 1
 90 -336 l 1
 90 -272 l 1
 282 -272 l 1
 282 -80 l 1
 346 -80 l 1
 346 -336 l 1
282 872 m 1
 90 872 l 1
 90 936 l 1
 346 936 l 1
 346 680 l 1
 282 680 l 1
 282 872 l 1
EndSplineSet
EndChar

StartChar: sym0A1.big2
Encoding: 86 -1 86
Width: 454
Flags: HW
HStem: -495 64<90 300> -241 20G<300 364> 1031 64<90 300>
VStem: 300 64<-431 -221 821 1031>
LayerCount: 2
Fore
SplineSet
364 -495 m 1
 90 -495 l 1
 90 -431 l 1
 300 -431 l 1
 300 -221 l 1
 364 -221 l 1
 364 -495 l 1
300 1031 m 1
 90 1031 l 1
 90 1095 l 1
 364 1095 l 1
 364 821 l 1
 300 821 l 1
 300 1031 l 1
EndSplineSet
EndChar

StartChar: sym0A1.big3
Encoding: 87 -1 87
Width: 472
Flags: HW
HStem: -654 64<90 318> 1190 64<90 318>
VStem: 318 64<-590 -362 962 1190>
LayerCount: 2
Fore
SplineSet
382 -654 m 1
 90 -654 l 1
 90 -590 l 1
 318 -590 l 1
 318 -362 l 1
 382 -362 l 1
 382 -654 l 1
318 1190 m 1
 90 1190 l 1
 90 1254 l 1
 382 1254 l 1
 382 962 l 1
 318 962 l 1
 318 1190 l 1
EndSplineSet
EndChar

StartChar: sym0A1.big4
Encoding: 88 -1 88
Width: 508
Flags: HW
HStem: -972 64<90 354> 1508 64<90 354>
VStem: 354 64<-908 -644 1244 1508>
LayerCount: 2
Fore
SplineSet
418 -972 m 1
 90 -972 l 1
 90 -908 l 1
 354 -908 l 1
 354 -644 l 1
 418 -644 l 1
 418 -972 l 1
354 1508 m 1
 90 1508 l 1
 90 1572 l 1
 418 1572 l 1
 418 1244 l 1
 354 1244 l 1
 354 1508 l 1
EndSplineSet
EndChar

StartChar: sym0A1.big5
Encoding: 89 -1 89
Width: 544
Flags: HW
HStem: -1290 64<90 390> 1826 64<90 390>
VStem: 390 64<-1226 -926 1526 1826>
LayerCount: 2
Fore
SplineSet
454 -1290 m 1
 90 -1290 l 1
 90 -1226 l 1
 390 -1226 l 1
 390 -926 l 1
 454 -926 l 1
 454 -1290 l 1
390 1826 m 1
 90 1826 l 1
 90 1890 l 1
 454 1890 l 1
 454 1526 l 1
 390 1526 l 1
 390 1826 l 1
EndSplineSet
EndChar

StartChar: uni23A1
Encoding: 90 9121 90
Width: 544
Flags: HW
HStem: 554 64<154 454>
VStem: 90 64<-50 554>
LayerCount: 2
Fore
SplineSet
154 -50 m 1
 90 -50 l 1
 90 618 l 1
 454 618 l 1
 454 554 l 1
 154 554 l 1
 154 -50 l 1
EndSplineSet
EndChar

StartChar: uni23A4
Encoding: 91 9124 91
Width: 544
Flags: HW
HStem: 554 64<90 390>
VStem: 390 64<-50 554>
LayerCount: 2
Fore
SplineSet
454 618 m 1
 454 -50 l 1
 390 -50 l 1
 390 554 l 1
 90 554 l 1
 90 618 l 1
 454 618 l 1
EndSplineSet
EndChar

StartChar: uni23A3
Encoding: 92 9123 92
Width: 544
Flags: HW
HStem: -18 64<154 454>
VStem: 90 64<46 650>
LayerCount: 2
Fore
SplineSet
154 46 m 1
 454 46 l 1
 454 -18 l 1
 90 -18 l 1
 90 650 l 1
 154 650 l 1
 154 46 l 1
EndSplineSet
EndChar

StartChar: uni23A6
Encoding: 93 9126 93
Width: 544
Flags: HW
HStem: -18 64<90 390>
VStem: 390 64<46 650>
LayerCount: 2
Fore
SplineSet
454 -18 m 1
 90 -18 l 1
 90 46 l 1
 390 46 l 1
 390 650 l 1
 454 650 l 1
 454 -18 l 1
EndSplineSet
EndChar

StartChar: uni23A2
Encoding: 94 9122 94
Width: 544
Flags: HW
VStem: 90 64<109 491>
LayerCount: 2
Fore
SplineSet
154 109 m 1
 90 109 l 1
 90 491 l 1
 154 491 l 1
 154 109 l 1
EndSplineSet
EndChar

StartChar: uni23A5
Encoding: 95 9125 95
Width: 544
Flags: HW
VStem: 390 64<109 491>
LayerCount: 2
Fore
SplineSet
390 109 m 1
 390 491 l 1
 454 491 l 1
 454 109 l 1
 390 109 l 1
EndSplineSet
EndChar

StartChar: uni27E6
Encoding: 96 10214 96
Width: 488
Flags: HW
HStem: -230 64<154 244 308 398> 766 64<154 244 308 398>
VStem: 90 64<-166 766> 244 64<-166 766>
LayerCount: 2
Fore
SplineSet
244 -166 m 1
 244 766 l 1
 154 766 l 1
 154 -166 l 1
 244 -166 l 1
398 -230 m 1
 90 -230 l 1
 90 830 l 1
 398 830 l 1
 398 766 l 1
 308 766 l 1
 308 -166 l 1
 398 -166 l 1
 398 -230 l 1
EndSplineSet
EndChar

StartChar: uni27E6.big1
Encoding: 97 -1 97
Width: 500
Flags: HW
HStem: -336 64<154 250 314 410> 872 64<154 250 314 410>
VStem: 90 64<-272 872> 250 64<-272 872>
LayerCount: 2
Fore
SplineSet
250 -272 m 1
 250 872 l 1
 154 872 l 1
 154 -272 l 1
 250 -272 l 1
410 -336 m 1
 90 -336 l 1
 90 936 l 1
 410 936 l 1
 410 872 l 1
 314 872 l 1
 314 -272 l 1
 410 -272 l 1
 410 -336 l 1
EndSplineSet
EndChar

StartChar: uni27E6.big2
Encoding: 98 -1 98
Width: 518
Flags: HW
HStem: -495 64<154 259 323 428> 1031 64<154 259 323 428>
VStem: 90 64<-431 1031> 259 64<-431 1031>
LayerCount: 2
Fore
SplineSet
259 -431 m 1
 259 1031 l 1
 154 1031 l 1
 154 -431 l 1
 259 -431 l 1
428 -495 m 1
 90 -495 l 1
 90 1095 l 1
 428 1095 l 1
 428 1031 l 1
 323 1031 l 1
 323 -431 l 1
 428 -431 l 1
 428 -495 l 1
EndSplineSet
EndChar

StartChar: uni27E6.big3
Encoding: 99 -1 99
Width: 536
Flags: HW
HStem: -654 64<154 268 332 446> 1190 64<154 268 332 446>
VStem: 90 64<-590 1190> 268 64<-590 1190>
LayerCount: 2
Fore
SplineSet
268 -590 m 1
 268 1190 l 1
 154 1190 l 1
 154 -590 l 1
 268 -590 l 1
446 -654 m 1
 90 -654 l 1
 90 1254 l 1
 446 1254 l 1
 446 1190 l 1
 332 1190 l 1
 332 -590 l 1
 446 -590 l 1
 446 -654 l 1
EndSplineSet
EndChar

StartChar: uni27E6.big4
Encoding: 100 -1 100
Width: 572
Flags: HW
HStem: -972 64<154 286 350 482> 1508 64<154 286 350 482>
VStem: 90 64<-908 1508> 286 64<-908 1508>
LayerCount: 2
Fore
SplineSet
286 -908 m 1
 286 1508 l 1
 154 1508 l 1
 154 -908 l 1
 286 -908 l 1
482 -972 m 1
 90 -972 l 1
 90 1572 l 1
 482 1572 l 1
 482 1508 l 1
 350 1508 l 1
 350 -908 l 1
 482 -908 l 1
 482 -972 l 1
EndSplineSet
EndChar

StartChar: uni27E6.big5
Encoding: 101 -1 101
Width: 608
Flags: HW
HStem: -1290 64<154 304 368 518> 1826 64<154 304 368 518>
VStem: 90 64<-1226 1826> 304 64<-1226 1826>
LayerCount: 2
Fore
SplineSet
304 -1226 m 1
 304 1826 l 1
 154 1826 l 1
 154 -1226 l 1
 304 -1226 l 1
518 -1290 m 1
 90 -1290 l 1
 90 1890 l 1
 518 1890 l 1
 518 1826 l 1
 368 1826 l 1
 368 -1226 l 1
 518 -1226 l 1
 518 -1290 l 1
EndSplineSet
EndChar

StartChar: uni27E7
Encoding: 102 10215 102
Width: 488
Flags: HW
HStem: -230 64<90 180 244 334> 766 64<90 180 244 334>
VStem: 180 64<-166 766> 334 64<-166 766>
LayerCount: 2
Fore
SplineSet
244 -166 m 1
 334 -166 l 1
 334 766 l 1
 244 766 l 1
 244 -166 l 1
180 -166 m 1
 180 766 l 1
 90 766 l 1
 90 830 l 1
 398 830 l 1
 398 -230 l 1
 90 -230 l 1
 90 -166 l 1
 180 -166 l 1
EndSplineSet
EndChar

StartChar: uni27E7.big1
Encoding: 103 -1 103
Width: 500
Flags: HW
HStem: -336 64<90 186 250 346> 872 64<90 186 250 346>
VStem: 186 64<-272 872> 346 64<-272 872>
LayerCount: 2
Fore
SplineSet
250 -272 m 1
 346 -272 l 1
 346 872 l 1
 250 872 l 1
 250 -272 l 1
186 -272 m 1
 186 872 l 1
 90 872 l 1
 90 936 l 1
 410 936 l 1
 410 -336 l 1
 90 -336 l 1
 90 -272 l 1
 186 -272 l 1
EndSplineSet
EndChar

StartChar: uni27E7.big2
Encoding: 104 -1 104
Width: 518
Flags: HW
HStem: -495 64<90 195 259 364> 1031 64<90 195 259 364>
VStem: 195 64<-431 1031> 364 64<-431 1031>
LayerCount: 2
Fore
SplineSet
259 -431 m 1
 364 -431 l 1
 364 1031 l 1
 259 1031 l 1
 259 -431 l 1
195 -431 m 1
 195 1031 l 1
 90 1031 l 1
 90 1095 l 1
 428 1095 l 1
 428 -495 l 1
 90 -495 l 1
 90 -431 l 1
 195 -431 l 1
EndSplineSet
EndChar

StartChar: uni27E7.big3
Encoding: 105 -1 105
Width: 536
Flags: HW
HStem: -654 64<90 204 268 382> 1190 64<90 204 268 382>
VStem: 204 64<-590 1190> 382 64<-590 1190>
LayerCount: 2
Fore
SplineSet
268 -590 m 1
 382 -590 l 1
 382 1190 l 1
 268 1190 l 1
 268 -590 l 1
204 -590 m 1
 204 1190 l 1
 90 1190 l 1
 90 1254 l 1
 446 1254 l 1
 446 -654 l 1
 90 -654 l 1
 90 -590 l 1
 204 -590 l 1
EndSplineSet
EndChar

StartChar: uni27E7.big4
Encoding: 106 -1 106
Width: 572
Flags: HW
HStem: -972 64<90 222 286 418> 1508 64<90 222 286 418>
VStem: 222 64<-908 1508> 418 64<-908 1508>
LayerCount: 2
Fore
SplineSet
286 -908 m 1
 418 -908 l 1
 418 1508 l 1
 286 1508 l 1
 286 -908 l 1
222 -908 m 1
 222 1508 l 1
 90 1508 l 1
 90 1572 l 1
 482 1572 l 1
 482 -972 l 1
 90 -972 l 1
 90 -908 l 1
 222 -908 l 1
EndSplineSet
EndChar

StartChar: uni27E7.big5
Encoding: 107 -1 107
Width: 608
Flags: HW
HStem: -1290 64<90 240 304 454> 1826 64<90 240 304 454>
VStem: 240 64<-1226 1826> 454 64<-1226 1826>
LayerCount: 2
Fore
SplineSet
304 -1226 m 1
 454 -1226 l 1
 454 1826 l 1
 304 1826 l 1
 304 -1226 l 1
240 -1226 m 1
 240 1826 l 1
 90 1826 l 1
 90 1890 l 1
 518 1890 l 1
 518 -1290 l 1
 90 -1290 l 1
 90 -1226 l 1
 240 -1226 l 1
EndSplineSet
EndChar

StartChar: sym0A2
Encoding: 108 -1 108
Width: 608
Flags: HW
HStem: 554 64<154 304 368 518>
VStem: 90 64<-50 554> 304 64<-50 554>
LayerCount: 2
Fore
SplineSet
368 -50 m 1
 304 -50 l 1
 304 554 l 1
 154 554 l 1
 154 -50 l 1
 90 -50 l 1
 90 618 l 1
 518 618 l 1
 518 554 l 1
 368 554 l 1
 368 -50 l 1
EndSplineSet
EndChar

StartChar: sym0A5
Encoding: 109 -1 109
Width: 608
Flags: HW
HStem: 554 64<90 240 304 454>
VStem: 240 64<-50 554> 454 64<-50 554>
LayerCount: 2
Fore
SplineSet
304 -50 m 1
 240 -50 l 1
 240 554 l 1
 90 554 l 1
 90 618 l 1
 518 618 l 1
 518 -50 l 1
 454 -50 l 1
 454 554 l 1
 304 554 l 1
 304 -50 l 1
EndSplineSet
EndChar

StartChar: sym0A4
Encoding: 110 -1 110
Width: 608
Flags: HW
HStem: -18 64<154 304 368 518>
VStem: 90 64<46 650> 304 64<46 650>
LayerCount: 2
Fore
SplineSet
518 -18 m 1
 90 -18 l 1
 90 650 l 1
 154 650 l 1
 154 46 l 1
 304 46 l 1
 304 650 l 1
 368 650 l 1
 368 46 l 1
 518 46 l 1
 518 -18 l 1
EndSplineSet
EndChar

StartChar: sym0A7
Encoding: 111 -1 111
Width: 608
Flags: HW
HStem: -18 64<90 240 304 454>
VStem: 240 64<46 650> 454 64<46 650>
LayerCount: 2
Fore
SplineSet
240 46 m 1
 240 650 l 1
 304 650 l 1
 304 46 l 1
 454 46 l 1
 454 650 l 1
 518 650 l 1
 518 -18 l 1
 90 -18 l 1
 90 46 l 1
 240 46 l 1
EndSplineSet
EndChar

StartChar: sym0A3
Encoding: 112 -1 112
Width: 544
Flags: HW
VStem: 90 64<109 491> 272 64<109 491>
LayerCount: 2
Fore
SplineSet
154 109 m 1
 90 109 l 1
 90 491 l 1
 154 491 l 1
 154 109 l 1
336 109 m 1
 272 109 l 1
 272 491 l 1
 336 491 l 1
 336 109 l 1
EndSplineSet
EndChar

StartChar: sym0A6
Encoding: 113 -1 113
Width: 544
Flags: HW
VStem: 208 64<109 491> 390 64<109 491>
LayerCount: 2
Fore
SplineSet
390 109 m 1
 390 491 l 1
 454 491 l 1
 454 109 l 1
 390 109 l 1
272 109 m 1
 208 109 l 1
 208 491 l 1
 272 491 l 1
 272 109 l 1
EndSplineSet
EndChar

StartChar: braceleft
Encoding: 114 123 114
Width: 469
Flags: HW
HStem: -230 53<312.356 379> 271 58<90 160.878> 777 53<312.356 379>
VStem: 203 64<-132.335 228.848 371.152 732.335>
CounterMasks: 1 e0
LayerCount: 2
Fore
SplineSet
379 777 m 1
 318 777 267 730 267 670 c 2
 267 428 l 2
 267 374 237 328 192 300 c 1
 237 272 267 226 267 172 c 2
 267 -70 l 2
 267 -130 318 -177 379 -177 c 1
 379 -230 l 1
 284 -230 203 -161 203 -70 c 2
 203 172 l 2
 203 229 150 271 90 271 c 1
 90 329 l 1
 150 329 203 371 203 428 c 2
 203 670 l 2
 203 761 284 830 379 830 c 1
 379 777 l 1
EndSplineSet
EndChar

StartChar: braceleft.big1
Encoding: 115 -1 115
Width: 481
Flags: HW
HStem: -336 53<321.219 391> 271 58<90 162.318> 883 53<321.219 391>
VStem: 209 64<-233.546 226.957 373.043 833.546>
CounterMasks: 1 e0
LayerCount: 2
Fore
SplineSet
391 883 m 1
 327 883 273 834 273 772 c 2
 273 432 l 2
 273 376 242 328 195 300 c 1
 242 272 273 224 273 168 c 2
 273 -172 l 2
 273 -234 327 -283 391 -283 c 1
 391 -336 l 1
 293 -336 209 -266 209 -172 c 2
 209 168 l 2
 209 228 153 271 90 271 c 1
 90 329 l 1
 153 329 209 372 209 432 c 2
 209 772 l 2
 209 866 293 936 391 936 c 1
 391 883 l 1
EndSplineSet
EndChar

StartChar: braceleft.big2
Encoding: 116 -1 116
Width: 499
Flags: HW
HStem: -495 53<336.125 409> 271 58<90 164.998> 1042 53<336.125 409>
VStem: 218 64<-389.029 221.565 378.435 989.029>
CounterMasks: 1 e0
LayerCount: 2
Fore
SplineSet
409 1042 m 1
 340 1042 282 991 282 925 c 2
 282 438 l 2
 282 379 249 329 199 300 c 1
 249 271 282 221 282 162 c 2
 282 -325 l 2
 282 -391 340 -442 409 -442 c 1
 409 -495 l 1
 307 -495 218 -423 218 -325 c 2
 218 162 l 2
 218 226 157 271 90 271 c 1
 90 329 l 1
 157 329 218 374 218 438 c 2
 218 925 l 2
 218 1023 307 1095 409 1095 c 1
 409 1042 l 1
EndSplineSet
EndChar

StartChar: braceleft.big3
Encoding: 117 -1 117
Width: 517
Flags: HW
HStem: -654 53<351.889 427> 271 58<90 170.395> 1201 53<351.889 427>
VStem: 227 64<-544.512 217.18 382.82 1144.51>
CounterMasks: 1 e0
LayerCount: 2
Fore
SplineSet
427 1201 m 1
 354 1201 291 1148 291 1078 c 2
 291 444 l 2
 291 381 255 330 202 300 c 1
 255 270 291 219 291 156 c 2
 291 -478 l 2
 291 -548 354 -601 427 -601 c 1
 427 -654 l 1
 320 -654 227 -580 227 -478 c 2
 227 156 l 2
 227 223 162 271 90 271 c 1
 90 329 l 1
 162 329 227 377 227 444 c 2
 227 1078 l 2
 227 1180 320 1254 427 1254 c 1
 427 1201 l 1
EndSplineSet
EndChar

StartChar: braceleft.big4
Encoding: 118 -1 118
Width: 553
Flags: HW
HStem: -972 53<381.346 463> 271 58<90 174.639> 1519 53<381.346 463>
VStem: 245 64<-851.112 209.375 390.625 1451.11>
CounterMasks: 1 e0
LayerCount: 2
Fore
SplineSet
463 1519 m 1
 381 1519 309 1462 309 1384 c 2
 309 456 l 2
 309 387 267 332 208 300 c 1
 267 268 309 213 309 144 c 2
 309 -784 l 2
 309 -862 381 -919 463 -919 c 1
 463 -972 l 1
 347 -972 245 -894 245 -784 c 2
 245 144 l 2
 245 219 171 271 90 271 c 1
 90 329 l 1
 171 329 245 381 245 456 c 2
 245 1384 l 2
 245 1494 347 1572 463 1572 c 1
 463 1519 l 1
EndSplineSet
EndChar

StartChar: braceleft.big5
Encoding: 119 -1 119
Width: 589
Flags: HW
HStem: -1290 53<409.391 499> 271 58<90 180.792> 1837 53<409.391 499>
VStem: 263 64<-1161.79 200.559 399.441 1761.79>
CounterMasks: 1 e0
LayerCount: 2
Fore
SplineSet
499 1837 m 1
 408 1837 327 1776 327 1690 c 2
 327 468 l 2
 327 393 281 333 215 300 c 1
 281 267 327 207 327 132 c 2
 327 -1090 l 2
 327 -1176 408 -1237 499 -1237 c 1
 499 -1290 l 1
 374 -1290 263 -1208 263 -1090 c 2
 263 132 l 2
 263 215 180 271 90 271 c 1
 90 329 l 1
 180 329 263 385 263 468 c 2
 263 1690 l 2
 263 1808 374 1890 499 1890 c 1
 499 1837 l 1
EndSplineSet
EndChar

StartChar: braceright
Encoding: 120 125 120
Width: 469
Flags: HW
HStem: -230 53<90 157.005> 271 58<308.528 379> 777 53<90 157.005>
VStem: 203 64<-129.754 230.321 369.679 729.754>
CounterMasks: 1 e0
LayerCount: 2
Fore
SplineSet
90 -177 m 1
 151 -177 203 -130 203 -70 c 2
 203 172 l 2
 203 226 233 272 277 300 c 1
 233 328 203 374 203 428 c 2
 203 670 l 2
 203 730 151 777 90 777 c 1
 90 830 l 1
 185 830 267 761 267 670 c 2
 267 428 l 2
 267 371 319 329 379 329 c 1
 379 271 l 1
 319 271 267 229 267 172 c 2
 267 -70 l 2
 267 -161 185 -230 90 -230 c 1
 90 -177 l 1
EndSplineSet
EndChar

StartChar: braceright.big1
Encoding: 121 -1 121
Width: 481
Flags: HW
HStem: -336 53<90 159.938> 271 58<319.066 391> 883 53<90 159.938>
VStem: 209 64<-233.546 226.957 373.043 833.546>
CounterMasks: 1 e0
LayerCount: 2
Fore
SplineSet
90 -283 m 1
 154 -283 209 -234 209 -172 c 2
 209 168 l 2
 209 224 240 272 286 300 c 1
 240 328 209 376 209 432 c 2
 209 772 l 2
 209 834 154 883 90 883 c 1
 90 936 l 1
 188 936 273 866 273 772 c 2
 273 432 l 2
 273 372 328 329 391 329 c 1
 391 271 l 1
 328 271 273 228 273 168 c 2
 273 -172 l 2
 273 -266 188 -336 90 -336 c 1
 90 -283 l 1
EndSplineSet
EndChar

StartChar: braceright.big2
Encoding: 122 -1 122
Width: 499
Flags: HW
HStem: -495 53<90 163.031> 271 58<334.363 409> 1042 53<90 163.031>
VStem: 218 64<-388.674 222.432 377.568 988.674>
CounterMasks: 1 e0
LayerCount: 2
Fore
SplineSet
90 -442 m 1
 159 -442 218 -391 218 -325 c 2
 218 162 l 2
 218 221 252 271 301 300 c 1
 252 329 218 379 218 438 c 2
 218 925 l 2
 218 991 159 1042 90 1042 c 1
 90 1095 l 1
 192 1095 282 1023 282 925 c 2
 282 438 l 2
 282 374 342 329 409 329 c 1
 409 271 l 1
 342 271 282 226 282 162 c 2
 282 -325 l 2
 282 -423 192 -495 90 -495 c 1
 90 -442 l 1
EndSplineSet
EndChar

StartChar: braceright.big3
Encoding: 123 -1 123
Width: 517
Flags: HW
HStem: -654 53<90 165.428> 271 58<346.966 427> 1201 53<90 165.428>
VStem: 227 64<-542.699 217.18 382.82 1142.7>
CounterMasks: 1 e0
LayerCount: 2
Fore
SplineSet
90 -601 m 1
 163 -601 227 -548 227 -478 c 2
 227 156 l 2
 227 219 263 270 316 300 c 1
 263 330 227 381 227 444 c 2
 227 1078 l 2
 227 1148 163 1201 90 1201 c 1
 90 1254 l 1
 197 1254 291 1180 291 1078 c 2
 291 444 l 2
 291 377 355 329 427 329 c 1
 427 271 l 1
 355 271 291 223 291 156 c 2
 291 -478 l 2
 291 -580 197 -654 90 -654 c 1
 90 -601 l 1
EndSplineSet
EndChar

StartChar: braceright.big4
Encoding: 124 -1 124
Width: 553
Flags: HW
HStem: -972 53<90 171.949> 271 58<378.678 463> 1519 53<90 171.949>
VStem: 245 64<-851.112 209.375 390.625 1451.11>
CounterMasks: 1 e0
LayerCount: 2
Fore
SplineSet
90 -919 m 1
 172 -919 245 -862 245 -784 c 2
 245 144 l 2
 245 213 286 268 345 300 c 1
 286 332 245 387 245 456 c 2
 245 1384 l 2
 245 1462 172 1519 90 1519 c 1
 90 1572 l 1
 206 1572 309 1494 309 1384 c 2
 309 456 l 2
 309 381 382 329 463 329 c 1
 463 271 l 1
 382 271 309 219 309 144 c 2
 309 -784 l 2
 309 -894 206 -972 90 -972 c 1
 90 -919 l 1
EndSplineSet
EndChar

StartChar: braceright.big5
Encoding: 125 -1 125
Width: 589
Flags: HW
HStem: -1290 53<90 179.766> 271 58<408.503 499> 1837 53<90 179.766>
VStem: 263 64<-1161.79 200.559 399.441 1761.79>
CounterMasks: 1 e0
LayerCount: 2
Fore
SplineSet
90 -1237 m 1
 181 -1237 263 -1176 263 -1090 c 2
 263 132 l 2
 263 207 309 267 375 300 c 1
 309 333 263 393 263 468 c 2
 263 1690 l 2
 263 1776 181 1837 90 1837 c 1
 90 1890 l 1
 215 1890 327 1808 327 1690 c 2
 327 468 l 2
 327 385 409 329 499 329 c 1
 499 271 l 1
 409 271 327 215 327 132 c 2
 327 -1090 l 2
 327 -1208 215 -1290 90 -1290 c 1
 90 -1237 l 1
EndSplineSet
EndChar

StartChar: uni23A7
Encoding: 126 9127 126
Width: 589
Flags: HW
HStem: 565 53<409.391 499>
VStem: 263 64<-50 489.788>
LayerCount: 2
Fore
SplineSet
499 565 m 1
 408 565 327 504 327 418 c 2
 327 -50 l 1
 263 -50 l 1
 263 418 l 2
 263 536 374 618 499 618 c 1
 499 565 l 1
EndSplineSet
EndChar

StartChar: uni23AB
Encoding: 127 9131 127
Width: 589
Flags: HW
HStem: 565 53<90 179.766>
VStem: 263 64<-50 489.788>
LayerCount: 2
Fore
SplineSet
90 618 m 1
 215 618 327 536 327 418 c 2
 327 -50 l 1
 263 -50 l 1
 263 418 l 2
 263 504 181 565 90 565 c 1
 90 618 l 1
EndSplineSet
EndChar

StartChar: uni23A9
Encoding: 128 9129 128
Width: 589
Flags: HW
HStem: -18 53<409.391 499>
VStem: 263 64<110.212 650>
LayerCount: 2
Fore
SplineSet
499 -18 m 1
 374 -18 263 64 263 182 c 2
 263 650 l 1
 327 650 l 1
 327 182 l 2
 327 96 408 35 499 35 c 1
 499 -18 l 1
EndSplineSet
EndChar

StartChar: uni23AD
Encoding: 129 9133 129
Width: 589
Flags: HW
HStem: -18 53<90 179.766>
VStem: 263 64<110.212 650>
LayerCount: 2
Fore
SplineSet
90 35 m 1
 181 35 263 96 263 182 c 2
 263 650 l 1
 327 650 l 1
 327 182 l 2
 327 64 215 -18 90 -18 c 1
 90 35 l 1
EndSplineSet
EndChar

StartChar: uni23A8
Encoding: 130 9128 130
Width: 589
Flags: HW
HStem: 271 58<90 180.792>
VStem: 263 64<-50 200.559 399.441 650>
LayerCount: 2
Fore
SplineSet
327 650 m 1
 327 468 l 2
 327 393 281 333 215 300 c 1
 281 267 327 207 327 132 c 2
 327 -50 l 1
 263 -50 l 1
 263 132 l 2
 263 215 180 271 90 271 c 1
 90 329 l 1
 180 329 263 385 263 468 c 2
 263 650 l 1
 327 650 l 1
EndSplineSet
EndChar

StartChar: uni23AC
Encoding: 131 9132 131
Width: 589
Flags: HW
HStem: 271 58<408.503 499>
VStem: 263 64<-50 200.559 399.441 650>
LayerCount: 2
Fore
SplineSet
263 -50 m 1
 263 132 l 2
 263 207 309 267 375 300 c 1
 309 333 263 393 263 468 c 2
 263 650 l 1
 327 650 l 1
 327 468 l 2
 327 385 409 329 499 329 c 1
 499 271 l 1
 409 271 327 215 327 132 c 2
 327 -50 l 1
 263 -50 l 1
EndSplineSet
EndChar

StartChar: uni23AA
Encoding: 132 9130 132
Width: 589
Flags: HW
VStem: 263 64<109 491>
LayerCount: 2
Fore
SplineSet
263 491 m 1
 327 491 l 1
 327 109 l 1
 263 109 l 1
 263 491 l 1
EndSplineSet
EndChar

StartChar: uni27E8
Encoding: 133 10216 133
Width: 424
Flags: HW
VStem: 92 240
LayerCount: 2
Fore
SplineSet
332 -220 m 1
 272 -240 l 1
 92 300 l 1
 272 840 l 1
 332 820 l 1
 152 300 l 1
 332 -220 l 1
EndSplineSet
EndChar

StartChar: uni27E8.big1
Encoding: 134 -1 134
Width: 436
Flags: HW
VStem: 91 254
LayerCount: 2
Fore
SplineSet
345 -327 m 1
 283 -345 l 1
 91 300 l 1
 283 945 l 1
 345 927 l 1
 153 300 l 1
 345 -327 l 1
EndSplineSet
EndChar

StartChar: uni27E8.big2
Encoding: 135 -1 135
Width: 454
Flags: HW
VStem: 301 62<-488.806 -476.233 1076.23 1088.81>
LayerCount: 2
Fore
SplineSet
363 -487 m 1
 301 -503 l 1
 91 300 l 1
 301 1103 l 1
 363 1087 l 1
 153 300 l 1
 363 -487 l 1
EndSplineSet
EndChar

StartChar: uni27E8.big3
Encoding: 136 -1 136
Width: 472
Flags: HW
VStem: 319 62<-648.581 -631.496 1231.5 1248.58>
LayerCount: 2
Fore
SplineSet
381 -647 m 1
 319 -661 l 1
 91 300 l 1
 319 1261 l 1
 381 1247 l 1
 153 300 l 1
 381 -647 l 1
EndSplineSet
EndChar

StartChar: uni27E8.big4
Encoding: 137 -1 137
Width: 508
Flags: HW
VStem: 355 62<-966.581 -945.087 1545.09 1566.58>
LayerCount: 2
Fore
SplineSet
417 -965 m 1
 355 -979 l 1
 91 300 l 1
 355 1579 l 1
 417 1565 l 1
 153 300 l 1
 417 -965 l 1
EndSplineSet
EndChar

StartChar: uni27E8.big5
Encoding: 138 -1 138
Width: 544
Flags: HW
VStem: 391 62<-1285.35 -1258.76 1858.76 1885.35>
LayerCount: 2
Fore
SplineSet
453 -1284 m 1
 391 -1296 l 1
 91 300 l 1
 391 1896 l 1
 453 1884 l 1
 153 300 l 1
 453 -1284 l 1
EndSplineSet
EndChar

StartChar: uni27E9
Encoding: 139 10217 139
Width: 424
Flags: HW
VStem: 92 240
LayerCount: 2
Fore
SplineSet
152 -240 m 1
 92 -220 l 1
 272 300 l 1
 92 820 l 1
 152 840 l 1
 332 300 l 1
 152 -240 l 1
EndSplineSet
EndChar

StartChar: uni27E9.big1
Encoding: 140 -1 140
Width: 436
Flags: HW
VStem: 91 254
LayerCount: 2
Fore
SplineSet
153 -345 m 1
 91 -327 l 1
 283 300 l 1
 91 927 l 1
 153 945 l 1
 345 300 l 1
 153 -345 l 1
EndSplineSet
EndChar

StartChar: uni27E9.big2
Encoding: 141 -1 141
Width: 454
Flags: HW
VStem: 91 272
LayerCount: 2
Fore
SplineSet
153 -503 m 1
 91 -487 l 1
 301 300 l 1
 91 1087 l 1
 153 1103 l 1
 363 300 l 1
 153 -503 l 1
EndSplineSet
EndChar

StartChar: uni27E9.big3
Encoding: 142 -1 142
Width: 472
Flags: HW
VStem: 91 290
LayerCount: 2
Fore
SplineSet
153 -661 m 1
 91 -647 l 1
 319 300 l 1
 91 1247 l 1
 153 1261 l 1
 381 300 l 1
 153 -661 l 1
EndSplineSet
EndChar

StartChar: uni27E9.big4
Encoding: 143 -1 143
Width: 508
Flags: HW
VStem: 91 326
LayerCount: 2
Fore
SplineSet
153 -979 m 1
 91 -965 l 1
 355 300 l 1
 91 1565 l 1
 153 1579 l 1
 417 300 l 1
 153 -979 l 1
EndSplineSet
EndChar

StartChar: uni27E9.big5
Encoding: 144 -1 144
Width: 544
Flags: HW
LayerCount: 2
Fore
SplineSet
153 -1296 m 1
 91 -1284 l 1
 391 300 l 1
 91 1884 l 1
 153 1896 l 1
 453 300 l 1
 153 -1296 l 1
EndSplineSet
EndChar

StartChar: uni27EA
Encoding: 145 10218 145
Width: 608
Flags: HW
LayerCount: 2
Fore
SplineSet
356 -219 m 1
 296 -241 l 1
 92 300 l 1
 296 841 l 1
 356 819 l 1
 152 300 l 1
 356 -219 l 1
516 -219 m 1
 456 -241 l 1
 252 300 l 1
 456 841 l 1
 516 819 l 1
 312 300 l 1
 516 -219 l 1
EndSplineSet
EndChar

StartChar: uni27EA.big1
Encoding: 146 -1 146
Width: 620
Flags: HW
LayerCount: 2
Fore
SplineSet
368 -326 m 1
 308 -346 l 1
 92 300 l 1
 308 946 l 1
 368 926 l 1
 152 300 l 1
 368 -326 l 1
528 -326 m 1
 468 -346 l 1
 252 300 l 1
 468 946 l 1
 528 926 l 1
 312 300 l 1
 528 -326 l 1
EndSplineSet
EndChar

StartChar: uni27EA.big2
Encoding: 147 -1 147
Width: 638
Flags: HW
LayerCount: 2
Fore
SplineSet
387 -486 m 1
 325 -504 l 1
 91 300 l 1
 325 1104 l 1
 387 1086 l 1
 153 300 l 1
 387 -486 l 1
547 -486 m 1
 485 -504 l 1
 251 300 l 1
 485 1104 l 1
 547 1086 l 1
 313 300 l 1
 547 -486 l 1
EndSplineSet
EndChar

StartChar: uni27EA.big3
Encoding: 148 -1 148
Width: 656
Flags: HW
VStem: 343 62<-647.806 -635.278 1235.28 1247.81> 503 62<-647.806 -635.278 1235.28 1247.81>
LayerCount: 2
Fore
SplineSet
405 -646 m 1
 343 -662 l 1
 91 300 l 1
 343 1262 l 1
 405 1246 l 1
 153 300 l 1
 405 -646 l 1
565 -646 m 1
 503 -662 l 1
 251 300 l 1
 503 1262 l 1
 565 1246 l 1
 313 300 l 1
 565 -646 l 1
EndSplineSet
EndChar

StartChar: uni27EA.big4
Encoding: 149 -1 149
Width: 692
Flags: HW
VStem: 379 62<-966.581 -947.913 1547.91 1566.58> 539 62<-966.581 -947.913 1547.91 1566.58>
LayerCount: 2
Fore
SplineSet
441 -965 m 1
 379 -979 l 1
 91 300 l 1
 379 1579 l 1
 441 1565 l 1
 153 300 l 1
 441 -965 l 1
601 -965 m 1
 539 -979 l 1
 251 300 l 1
 539 1579 l 1
 601 1565 l 1
 313 300 l 1
 601 -965 l 1
EndSplineSet
EndChar

StartChar: uni27EA.big5
Encoding: 150 -1 150
Width: 728
Flags: HW
VStem: 415 62<-1285.35 -1261.52 1861.52 1885.35> 575 62<-1285.35 -1261.52 1861.52 1885.35>
LayerCount: 2
Fore
SplineSet
477 -1284 m 1
 415 -1296 l 1
 91 300 l 1
 415 1896 l 1
 477 1884 l 1
 153 300 l 1
 477 -1284 l 1
637 -1284 m 1
 575 -1296 l 1
 251 300 l 1
 575 1896 l 1
 637 1884 l 1
 313 300 l 1
 637 -1284 l 1
EndSplineSet
EndChar

StartChar: uni27EB
Encoding: 151 10219 151
Width: 608
Flags: HW
LayerCount: 2
Fore
SplineSet
152 -241 m 1
 92 -219 l 1
 296 300 l 1
 92 819 l 1
 152 841 l 1
 356 300 l 1
 152 -241 l 1
312 -241 m 1
 252 -219 l 1
 456 300 l 1
 252 819 l 1
 312 841 l 1
 516 300 l 1
 312 -241 l 1
EndSplineSet
EndChar

StartChar: uni27EB.big1
Encoding: 152 -1 152
Width: 620
Flags: HW
LayerCount: 2
Fore
SplineSet
152 -346 m 1
 92 -326 l 1
 308 300 l 1
 92 926 l 1
 152 946 l 1
 368 300 l 1
 152 -346 l 1
312 -346 m 1
 252 -326 l 1
 468 300 l 1
 252 926 l 1
 312 946 l 1
 528 300 l 1
 312 -346 l 1
EndSplineSet
EndChar

StartChar: uni27EB.big2
Encoding: 153 -1 153
Width: 638
Flags: HW
LayerCount: 2
Fore
SplineSet
153 -504 m 1
 91 -486 l 1
 325 300 l 1
 91 1086 l 1
 153 1104 l 1
 387 300 l 1
 153 -504 l 1
313 -504 m 1
 251 -486 l 1
 485 300 l 1
 251 1086 l 1
 313 1104 l 1
 547 300 l 1
 313 -504 l 1
EndSplineSet
EndChar

StartChar: uni27EB.big3
Encoding: 154 -1 154
Width: 656
Flags: HW
LayerCount: 2
Fore
SplineSet
153 -662 m 1
 91 -646 l 1
 343 300 l 1
 91 1246 l 1
 153 1262 l 1
 405 300 l 1
 153 -662 l 1
313 -662 m 1
 251 -646 l 1
 503 300 l 1
 251 1246 l 1
 313 1262 l 1
 565 300 l 1
 313 -662 l 1
EndSplineSet
EndChar

StartChar: uni27EB.big4
Encoding: 155 -1 155
Width: 692
Flags: HW
LayerCount: 2
Fore
SplineSet
153 -979 m 1
 91 -965 l 1
 379 300 l 1
 91 1565 l 1
 153 1579 l 1
 441 300 l 1
 153 -979 l 1
313 -979 m 1
 251 -965 l 1
 539 300 l 1
 251 1565 l 1
 313 1579 l 1
 601 300 l 1
 313 -979 l 1
EndSplineSet
EndChar

StartChar: uni27EB.big5
Encoding: 156 -1 156
Width: 728
Flags: HW
LayerCount: 2
Fore
SplineSet
153 -1296 m 1
 91 -1284 l 1
 415 300 l 1
 91 1884 l 1
 153 1896 l 1
 477 300 l 1
 153 -1296 l 1
313 -1296 m 1
 251 -1284 l 1
 575 300 l 1
 251 1884 l 1
 313 1896 l 1
 637 300 l 1
 313 -1296 l 1
EndSplineSet
EndChar

StartChar: uni2991
Encoding: 157 10641 157
Width: 424
Flags: HW
HStem: 244 112<243.625 312>
VStem: 222 112<266.744 333.256>
LayerCount: 2
Fore
SplineSet
332 -220 m 1
 272 -240 l 1
 92 300 l 1
 272 840 l 1
 332 820 l 1
 152 300 l 1
 332 -220 l 1
278 356 m 0
 294 356 334 317 334 300 c 0
 334 283 294 244 278 244 c 0
 261 244 222 283 222 300 c 0
 222 317 261 356 278 356 c 0
EndSplineSet
EndChar

StartChar: uni2991.big1
Encoding: 158 -1 158
Width: 436
Flags: HW
HStem: 244 112<255.625 324>
VStem: 234 112<266.744 333.256>
LayerCount: 2
Fore
SplineSet
345 -327 m 1
 283 -345 l 1
 91 300 l 1
 283 945 l 1
 345 927 l 1
 153 300 l 1
 345 -327 l 1
290 356 m 0
 306 356 346 317 346 300 c 0
 346 283 306 244 290 244 c 0
 273 244 234 283 234 300 c 0
 234 317 273 356 290 356 c 0
EndSplineSet
EndChar

StartChar: uni2991.big2
Encoding: 159 -1 159
Width: 454
Flags: HW
HStem: 244 112<273.625 342>
VStem: 252 112<266.744 333.256> 301 62<-488.806 -476.233 1076.23 1088.81>
LayerCount: 2
Fore
SplineSet
363 -487 m 1xa0
 301 -503 l 1
 91 300 l 1
 301 1103 l 1
 363 1087 l 1
 153 300 l 1
 363 -487 l 1xa0
308 356 m 0
 324 356 364 317 364 300 c 0
 364 283 324 244 308 244 c 0
 291 244 252 283 252 300 c 0xc0
 252 317 291 356 308 356 c 0
EndSplineSet
EndChar

StartChar: uni2991.big3
Encoding: 160 -1 160
Width: 472
Flags: HW
HStem: 244 112<291.625 360>
VStem: 270 112<266.744 333.256> 319 62<-648.581 -631.496 1231.5 1248.58>
LayerCount: 2
Fore
SplineSet
381 -647 m 1xa0
 319 -661 l 1
 91 300 l 1
 319 1261 l 1
 381 1247 l 1
 153 300 l 1
 381 -647 l 1xa0
326 356 m 0
 342 356 382 317 382 300 c 0
 382 283 342 244 326 244 c 0
 309 244 270 283 270 300 c 0xc0
 270 317 309 356 326 356 c 0
EndSplineSet
EndChar

StartChar: uni2991.big4
Encoding: 161 -1 161
Width: 508
Flags: HW
HStem: 244 112<327.625 396>
VStem: 306 112<266.744 333.256> 355 62<-966.581 -945.087 1545.09 1566.58>
LayerCount: 2
Fore
SplineSet
417 -965 m 1xa0
 355 -979 l 1
 91 300 l 1
 355 1579 l 1
 417 1565 l 1
 153 300 l 1
 417 -965 l 1xa0
362 356 m 0
 378 356 418 317 418 300 c 0
 418 283 378 244 362 244 c 0
 345 244 306 283 306 300 c 0xc0
 306 317 345 356 362 356 c 0
EndSplineSet
EndChar

StartChar: uni2991.big5
Encoding: 162 -1 162
Width: 544
Flags: HW
HStem: 244 112<363.625 432>
VStem: 342 112<266.744 333.256> 391 62<-1285.35 -1258.76 1858.76 1885.35>
LayerCount: 2
Fore
SplineSet
453 -1284 m 1xa0
 391 -1296 l 1
 91 300 l 1
 391 1896 l 1
 453 1884 l 1
 153 300 l 1
 453 -1284 l 1xa0
398 356 m 0
 414 356 454 317 454 300 c 0
 454 283 414 244 398 244 c 0
 381 244 342 283 342 300 c 0xc0
 342 317 381 356 398 356 c 0
EndSplineSet
EndChar

StartChar: uni2992
Encoding: 163 10642 163
Width: 424
Flags: HW
HStem: 244 112<112.375 179.732>
VStem: 90 113<267.131 332.869>
LayerCount: 2
Fore
SplineSet
152 -240 m 1
 92 -220 l 1
 272 300 l 1
 92 820 l 1
 152 840 l 1
 332 300 l 1
 152 -240 l 1
146 356 m 0
 163 356 203 316 203 300 c 0
 203 284 163 244 146 244 c 0
 131 244 90 283 90 300 c 0
 90 317 131 356 146 356 c 0
EndSplineSet
EndChar

StartChar: uni2992.big1
Encoding: 164 -1 164
Width: 436
Flags: HW
HStem: 244 112<112.375 179.732>
VStem: 90 113<267.131 332.869>
LayerCount: 2
Fore
SplineSet
153 -345 m 1
 91 -327 l 1
 283 300 l 1
 91 927 l 1
 153 945 l 1
 345 300 l 1
 153 -345 l 1
146 356 m 0
 163 356 203 316 203 300 c 0
 203 284 163 244 146 244 c 0
 131 244 90 283 90 300 c 0
 90 317 131 356 146 356 c 0
EndSplineSet
EndChar

StartChar: uni2992.big2
Encoding: 165 -1 165
Width: 454
Flags: HW
HStem: 244 112<112.375 179.732>
VStem: 90 113<267.131 332.869>
LayerCount: 2
Fore
SplineSet
153 -503 m 1
 91 -487 l 1
 301 300 l 1
 91 1087 l 1
 153 1103 l 1
 363 300 l 1
 153 -503 l 1
146 356 m 0
 163 356 203 316 203 300 c 0
 203 284 163 244 146 244 c 0
 131 244 90 283 90 300 c 0
 90 317 131 356 146 356 c 0
EndSplineSet
EndChar

StartChar: uni2992.big3
Encoding: 166 -1 166
Width: 472
Flags: HW
HStem: 244 112<112.375 179.732>
VStem: 90 113<267.131 332.869>
LayerCount: 2
Fore
SplineSet
153 -661 m 1
 91 -647 l 1
 319 300 l 1
 91 1247 l 1
 153 1261 l 1
 381 300 l 1
 153 -661 l 1
146 356 m 0
 163 356 203 316 203 300 c 0
 203 284 163 244 146 244 c 0
 131 244 90 283 90 300 c 0
 90 317 131 356 146 356 c 0
EndSplineSet
EndChar

StartChar: uni2992.big4
Encoding: 167 -1 167
Width: 508
Flags: HW
HStem: 244 112<112.375 179.732>
VStem: 90 113<267.131 332.869>
LayerCount: 2
Fore
SplineSet
153 -979 m 1
 91 -965 l 1
 355 300 l 1
 91 1565 l 1
 153 1579 l 1
 417 300 l 1
 153 -979 l 1
146 356 m 0
 163 356 203 316 203 300 c 0
 203 284 163 244 146 244 c 0
 131 244 90 283 90 300 c 0
 90 317 131 356 146 356 c 0
EndSplineSet
EndChar

StartChar: uni2992.big5
Encoding: 168 -1 168
Width: 544
Flags: HW
HStem: 244 112<112.375 179.732>
VStem: 90 113<267.131 332.869>
LayerCount: 2
Fore
SplineSet
153 -1296 m 1
 91 -1284 l 1
 391 300 l 1
 91 1884 l 1
 153 1896 l 1
 453 300 l 1
 153 -1296 l 1
146 356 m 0
 163 356 203 316 203 300 c 0
 203 284 163 244 146 244 c 0
 131 244 90 283 90 300 c 0
 90 317 131 356 146 356 c 0
EndSplineSet
EndChar

StartChar: slash
Encoding: 169 47 169
Width: 514
Flags: HW
VStem: 91 332
LayerCount: 2
Fore
SplineSet
153 -238 m 1
 91 -222 l 1
 361 838 l 1
 423 822 l 1
 153 -238 l 1
EndSplineSet
EndChar

StartChar: slash.big1
Encoding: 170 -1 170
Width: 586
Flags: HW
LayerCount: 2
Fore
SplineSet
153 -344 m 1
 91 -328 l 1
 433 944 l 1
 495 928 l 1
 153 -344 l 1
EndSplineSet
EndChar

StartChar: slash.big2
Encoding: 171 -1 171
Width: 694
Flags: HW
LayerCount: 2
Fore
SplineSet
153 -504 m 1
 91 -486 l 1
 541 1104 l 1
 603 1086 l 1
 153 -504 l 1
EndSplineSet
EndChar

StartChar: slash.big3
Encoding: 172 -1 172
Width: 802
Flags: HW
LayerCount: 2
Fore
SplineSet
153 -663 m 1
 91 -645 l 1
 649 1263 l 1
 711 1245 l 1
 153 -663 l 1
EndSplineSet
EndChar

StartChar: slash.big4
Encoding: 173 -1 173
Width: 1018
Flags: HW
LayerCount: 2
Fore
SplineSet
153 -981 m 1
 91 -963 l 1
 865 1581 l 1
 927 1563 l 1
 153 -981 l 1
EndSplineSet
EndChar

StartChar: slash.big5
Encoding: 174 -1 174
Width: 1234
Flags: HW
LayerCount: 2
Fore
SplineSet
153 -1300 m 1
 91 -1280 l 1
 1081 1900 l 1
 1143 1880 l 1
 153 -1300 l 1
EndSplineSet
EndChar

StartChar: backslash
Encoding: 175 92 175
Width: 514
Flags: HW
VStem: 91 332
LayerCount: 2
Fore
SplineSet
423 -222 m 1
 361 -238 l 1
 91 822 l 1
 153 838 l 1
 423 -222 l 1
EndSplineSet
EndChar

StartChar: backslash.big1
Encoding: 176 -1 176
Width: 586
Flags: HW
LayerCount: 2
Fore
SplineSet
495 -328 m 1
 433 -344 l 1
 91 928 l 1
 153 944 l 1
 495 -328 l 1
EndSplineSet
EndChar

StartChar: backslash.big2
Encoding: 177 -1 177
Width: 694
Flags: HW
LayerCount: 2
Fore
SplineSet
603 -486 m 1
 541 -504 l 1
 91 1086 l 1
 153 1104 l 1
 603 -486 l 1
EndSplineSet
EndChar

StartChar: backslash.big3
Encoding: 178 -1 178
Width: 802
Flags: HW
LayerCount: 2
Fore
SplineSet
711 -645 m 1
 649 -663 l 1
 91 1245 l 1
 153 1263 l 1
 711 -645 l 1
EndSplineSet
EndChar

StartChar: backslash.big4
Encoding: 179 -1 179
Width: 1018
Flags: HW
LayerCount: 2
Fore
SplineSet
927 -963 m 1
 865 -981 l 1
 91 1563 l 1
 153 1581 l 1
 927 -963 l 1
EndSplineSet
EndChar

StartChar: backslash.big5
Encoding: 180 -1 180
Width: 1234
Flags: HW
LayerCount: 2
Fore
SplineSet
1143 -1280 m 1
 1081 -1300 l 1
 91 1880 l 1
 153 1900 l 1
 1143 -1280 l 1
EndSplineSet
EndChar

StartChar: uni2223.short
Encoding: 181 58113 181
Width: 364
Flags: HW
VStem: 150 64<35 565>
LayerCount: 2
Fore
SplineSet
150 565 m 1
 214 565 l 1
 214 35 l 1
 150 35 l 1
 150 565 l 1
EndSplineSet
EndChar

StartChar: uni2223
Encoding: 182 8739 182
Width: 364
Flags: HW
HStem: -230 21G<150 214>
VStem: 150 64<-230 830>
LayerCount: 2
Fore
SplineSet
150 830 m 1
 214 830 l 1
 214 -230 l 1
 150 -230 l 1
 150 830 l 1
EndSplineSet
EndChar

StartChar: uni2223.big1
Encoding: 183 -1 183
Width: 364
Flags: HW
VStem: 150 64<-336 936>
LayerCount: 2
Fore
SplineSet
150 936 m 1
 214 936 l 1
 214 -336 l 1
 150 -336 l 1
 150 936 l 1
EndSplineSet
EndChar

StartChar: uni2224.short
Encoding: 184 58026 184
Width: 484
Flags: HW
VStem: 210 64<35 248 352 565>
LayerCount: 2
Fore
SplineSet
373 409 m 1
 401 359 l 1
 274 285 l 1
 274 35 l 1
 210 35 l 1
 210 248 l 1
 111 191 l 1
 83 241 l 1
 210 315 l 1
 210 565 l 1
 274 565 l 1
 274 352 l 1
 373 409 l 1
EndSplineSet
EndChar

StartChar: uni2224
Encoding: 185 8740 185
Width: 544
Flags: HW
HStem: -230 21G<240 304>
VStem: 240 64<-230 227 373 830>
LayerCount: 2
Fore
SplineSet
422 491 m 1
 463 450 l 1
 304 291 l 1
 304 -230 l 1
 240 -230 l 1
 240 227 l 1
 122 109 l 1
 81 150 l 1
 240 309 l 1
 240 830 l 1
 304 830 l 1
 304 373 l 1
 422 491 l 1
EndSplineSet
EndChar

StartChar: uni2224.big1
Encoding: 186 -1 186
Width: 544
Flags: HW
VStem: 240 64<-336 227 373 936>
LayerCount: 2
Fore
SplineSet
422 491 m 1
 463 450 l 1
 304 291 l 1
 304 -336 l 1
 240 -336 l 1
 240 227 l 1
 122 109 l 1
 81 150 l 1
 240 309 l 1
 240 936 l 1
 304 936 l 1
 304 373 l 1
 422 491 l 1
EndSplineSet
EndChar

StartChar: sym0A8
Encoding: 187 -1 187
Width: 364
Flags: HW
VStem: 150 64<109 491>
LayerCount: 2
Fore
SplineSet
150 491 m 1
 214 491 l 1
 214 109 l 1
 150 109 l 1
 150 491 l 1
EndSplineSet
EndChar

StartChar: uni2225.short
Encoding: 188 58114 188
Width: 608
Flags: HW
VStem: 150 64<35 565> 394 64<35 565>
LayerCount: 2
Fore
SplineSet
150 565 m 1
 214 565 l 1
 214 35 l 1
 150 35 l 1
 150 565 l 1
394 565 m 1
 458 565 l 1
 458 35 l 1
 394 35 l 1
 394 565 l 1
EndSplineSet
EndChar

StartChar: uni2225
Encoding: 189 8741 189
Width: 608
Flags: HW
HStem: -230 21G<150 214 394 458>
VStem: 150 64<-230 830> 394 64<-230 830>
LayerCount: 2
Fore
SplineSet
150 830 m 1
 214 830 l 1
 214 -230 l 1
 150 -230 l 1
 150 830 l 1
394 830 m 1
 458 830 l 1
 458 -230 l 1
 394 -230 l 1
 394 830 l 1
EndSplineSet
EndChar

StartChar: uni2225.big1
Encoding: 190 -1 190
Width: 608
Flags: HW
VStem: 150 64<-336 936> 394 64<-336 936>
LayerCount: 2
Fore
SplineSet
150 936 m 1
 214 936 l 1
 214 -336 l 1
 150 -336 l 1
 150 936 l 1
394 936 m 1
 458 936 l 1
 458 -336 l 1
 394 -336 l 1
 394 936 l 1
EndSplineSet
EndChar

StartChar: uni2226.short
Encoding: 191 58027 191
Width: 728
Flags: HW
VStem: 210 64<35 178 281 565> 454 64<35 319 422 565>
LayerCount: 2
Fore
SplineSet
617 479 m 1
 645 429 l 1
 518 356 l 1
 518 35 l 1
 454 35 l 1
 454 319 l 1
 274 215 l 1
 274 35 l 1
 210 35 l 1
 210 178 l 1
 111 121 l 1
 83 171 l 1
 210 244 l 1
 210 565 l 1
 274 565 l 1
 274 281 l 1
 454 385 l 1
 454 565 l 1
 518 565 l 1
 518 422 l 1
 617 479 l 1
EndSplineSet
EndChar

StartChar: uni2226
Encoding: 192 8742 192
Width: 788
Flags: HW
HStem: -230 21G<240 304 484 548>
VStem: 240 64<-230 105 251 830> 484 64<-230 349 495 830>
LayerCount: 2
Fore
SplineSet
666 613 m 1
 707 572 l 1
 548 413 l 1
 548 -230 l 1
 484 -230 l 1
 484 349 l 1
 304 169 l 1
 304 -230 l 1
 240 -230 l 1
 240 105 l 1
 122 -13 l 1
 81 28 l 1
 240 187 l 1
 240 830 l 1
 304 830 l 1
 304 251 l 1
 484 431 l 1
 484 830 l 1
 548 830 l 1
 548 495 l 1
 666 613 l 1
EndSplineSet
EndChar

StartChar: uni2226.big1
Encoding: 193 -1 193
Width: 788
Flags: HW
VStem: 240 64<-336 105 251 936> 484 64<-336 349 495 936>
LayerCount: 2
Fore
SplineSet
666 613 m 1
 707 572 l 1
 548 413 l 1
 548 -336 l 1
 484 -336 l 1
 484 349 l 1
 304 169 l 1
 304 -336 l 1
 240 -336 l 1
 240 105 l 1
 122 -13 l 1
 81 28 l 1
 240 187 l 1
 240 936 l 1
 304 936 l 1
 304 251 l 1
 484 431 l 1
 484 936 l 1
 548 936 l 1
 548 495 l 1
 666 613 l 1
EndSplineSet
EndChar

StartChar: sym0A9
Encoding: 194 -1 194
Width: 608
Flags: HW
VStem: 150 64<109 491> 394 64<109 491>
LayerCount: 2
Fore
SplineSet
150 491 m 1
 214 491 l 1
 214 109 l 1
 150 109 l 1
 150 491 l 1
394 491 m 1
 458 491 l 1
 458 109 l 1
 394 109 l 1
 394 491 l 1
EndSplineSet
EndChar

StartChar: uni2980
Encoding: 195 10624 195
Width: 852
Flags: HW
HStem: -230 21G<150 214 394 458 638 702>
VStem: 150 64<-230 830> 394 64<-230 830> 638 64<-230 830>
CounterMasks: 1 70
LayerCount: 2
Fore
SplineSet
150 830 m 1
 214 830 l 1
 214 -230 l 1
 150 -230 l 1
 150 830 l 1
394 830 m 1
 458 830 l 1
 458 -230 l 1
 394 -230 l 1
 394 830 l 1
638 830 m 1
 702 830 l 1
 702 -230 l 1
 638 -230 l 1
 638 830 l 1
EndSplineSet
EndChar

StartChar: uni2980.big1
Encoding: 196 -1 196
Width: 852
Flags: HW
VStem: 150 64<-336 936> 394 64<-336 936> 638 64<-336 936>
CounterMasks: 1 e0
LayerCount: 2
Fore
SplineSet
150 936 m 1
 214 936 l 1
 214 -336 l 1
 150 -336 l 1
 150 936 l 1
394 936 m 1
 458 936 l 1
 458 -336 l 1
 394 -336 l 1
 394 936 l 1
638 936 m 1
 702 936 l 1
 702 -336 l 1
 638 -336 l 1
 638 936 l 1
EndSplineSet
EndChar

StartChar: sym0AA
Encoding: 197 -1 197
Width: 852
Flags: HW
VStem: 150 64<109 491> 394 64<109 491> 638 64<109 491>
CounterMasks: 1 e0
LayerCount: 2
Fore
SplineSet
150 491 m 1
 214 491 l 1
 214 109 l 1
 150 109 l 1
 150 491 l 1
394 491 m 1
 458 491 l 1
 458 109 l 1
 394 109 l 1
 394 491 l 1
638 491 m 1
 702 491 l 1
 702 109 l 1
 638 109 l 1
 638 491 l 1
EndSplineSet
EndChar

StartChar: arrowup.short
Encoding: 198 -1 198
Width: 544
Flags: HW
VStem: 240 64<-18 509>
LayerCount: 2
Fore
SplineSet
272 631 m 1
 439 465 l 1
 393 419 l 1
 304 509 l 1
 304 -18 l 1
 240 -18 l 1
 240 509 l 1
 151 419 l 1
 105 465 l 1
 272 631 l 1
EndSplineSet
EndChar

StartChar: arrowdown.short
Encoding: 199 -1 199
Width: 544
Flags: HW
VStem: 240 64<91 650>
LayerCount: 2
Fore
SplineSet
272 -31 m 1
 105 135 l 1
 151 181 l 1
 240 91 l 1
 240 650 l 1
 304 650 l 1
 304 91 l 1
 393 181 l 1
 439 135 l 1
 272 -31 l 1
EndSplineSet
EndChar

StartChar: sym0AB
Encoding: 200 -1 200
Width: 544
Flags: HW
VStem: 240 64<109 491>
LayerCount: 2
Fore
SplineSet
240 491 m 1
 304 491 l 1
 304 109 l 1
 240 109 l 1
 240 491 l 1
EndSplineSet
EndChar

StartChar: arrowdblup.short
Encoding: 201 -1 201
Width: 664
Flags: HW
VStem: 210 64<-50 419> 390 64<-50 419>
LayerCount: 2
Fore
SplineSet
332 631 m 1
 542 421 l 1
 497 376 l 1
 454 419 l 1
 454 -50 l 1
 390 -50 l 1
 390 483 l 1
 332 541 l 1
 274 483 l 1
 274 -50 l 1
 210 -50 l 1
 210 419 l 1
 167 376 l 1
 122 421 l 1
 332 631 l 1
EndSplineSet
EndChar

StartChar: arrowdbldown.short
Encoding: 202 -1 202
Width: 664
Flags: HW
VStem: 210 64<181 650> 390 64<181 650>
LayerCount: 2
Fore
SplineSet
332 -31 m 1
 122 179 l 1
 167 224 l 1
 210 181 l 1
 210 650 l 1
 274 650 l 1
 274 117 l 1
 332 59 l 1
 390 117 l 1
 390 650 l 1
 454 650 l 1
 454 181 l 1
 497 224 l 1
 542 179 l 1
 332 -31 l 1
EndSplineSet
EndChar

StartChar: sym0AC
Encoding: 203 -1 203
Width: 664
Flags: HW
VStem: 210 64<109 491> 390 64<109 491>
LayerCount: 2
Fore
SplineSet
210 491 m 1
 274 491 l 1
 274 109 l 1
 210 109 l 1
 210 491 l 1
390 491 m 1
 454 491 l 1
 454 109 l 1
 390 109 l 1
 390 491 l 1
EndSplineSet
EndChar

StartChar: sym0AD
Encoding: 204 -1 204
Width: 265
Flags: HW
HStem: 268 64<128.212 297>
VStem: 0 53<95 184.766>
LayerCount: 2
Fore
SplineSet
0 95 m 1
 0 220 82 332 200 332 c 2
 297 332 l 1
 297 268 l 1
 200 268 l 2
 114 268 53 186 53 95 c 1
 0 95 l 1
EndSplineSet
EndChar

StartChar: sym0AF
Encoding: 205 -1 205
Width: 265
Flags: HW
HStem: 268 64<128.212 297>
VStem: 0 53<415.234 505>
LayerCount: 2
Fore
SplineSet
53 505 m 1
 53 414 114 332 200 332 c 2
 297 332 l 1
 297 268 l 1
 200 268 l 2
 82 268 0 380 0 505 c 1
 53 505 l 1
EndSplineSet
EndChar

StartChar: sym0AE
Encoding: 206 -1 206
Width: 265
Flags: HW
HStem: 268 64<-32 136.788>
VStem: 212 53<95 184.766>
LayerCount: 2
Fore
SplineSet
212 95 m 1
 212 186 151 268 65 268 c 2
 -32 268 l 1
 -32 332 l 1
 65 332 l 2
 183 332 265 220 265 95 c 1
 212 95 l 1
EndSplineSet
EndChar

StartChar: sym0B0
Encoding: 207 -1 207
Width: 265
Flags: HW
HStem: 268 64<-32 136.788>
VStem: 212 53<415.234 505>
LayerCount: 2
Fore
SplineSet
265 505 m 1
 265 380 183 268 65 268 c 2
 -32 268 l 1
 -32 332 l 1
 65 332 l 2
 151 332 212 414 212 505 c 1
 265 505 l 1
EndSplineSet
EndChar

StartChar: sym0B2
Encoding: 208 -1 208
Width: 530
Flags: HW
HStem: 268 64<-32 165.559 364.441 562>
VStem: 236 58<414.208 505>
LayerCount: 2
Fore
SplineSet
562 268 m 1
 433 268 l 2
 358 268 298 314 265 380 c 1
 232 314 172 268 97 268 c 2
 -32 268 l 1
 -32 332 l 1
 97 332 l 2
 180 332 236 415 236 505 c 1
 294 505 l 1
 294 415 350 332 433 332 c 2
 562 332 l 1
 562 268 l 1
EndSplineSet
EndChar

StartChar: sym0B3
Encoding: 209 -1 209
Width: 530
Flags: HW
HStem: 268 64<-32 165.559 364.441 562>
VStem: 236 58<95 185.792>
LayerCount: 2
Fore
SplineSet
-32 332 m 1
 97 332 l 2
 172 332 232 286 265 220 c 1
 298 286 358 332 433 332 c 2
 562 332 l 1
 562 268 l 1
 433 268 l 2
 350 268 294 185 294 95 c 1
 236 95 l 1
 236 185 180 268 97 268 c 2
 -32 268 l 1
 -32 332 l 1
EndSplineSet
EndChar

StartChar: sym0B1
Encoding: 210 -1 210
Width: 60
Flags: HW
HStem: 268 64<-32 92>
VStem: -32 124<268 332>
LayerCount: 2
Fore
SplineSet
-32 268 m 1
 -32 332 l 1
 92 332 l 1
 92 268 l 1
 -32 268 l 1
EndSplineSet
EndChar

StartChar: radical.tex
Encoding: 211 -1 211
Width: 700
Flags: HW
HStem: 0 56<700 732>
LayerCount: 2
Fore
SplineSet
66 -576 m 1
 55 -547 l 1
 204 -488 l 1
 351 -863 l 1
 651 56 l 1
 732 56 l 1
 732 0 l 1
 700 0 l 1
 371 -981 l 1
 311 -1004 l 1
 132 -551 l 1
 66 -576 l 1
EndSplineSet
EndChar

StartChar: radical.tex.big1
Encoding: 212 -1 212
Width: 748
Flags: HW
HStem: 0 56<748 780>
LayerCount: 2
Fore
SplineSet
73 -676 m 1
 63 -646 l 1
 214 -594 l 1
 374 -1059 l 1
 698 56 l 1
 780 56 l 1
 780 0 l 1
 748 0 l 1
 393 -1195 l 1
 332 -1216 l 1
 139 -654 l 1
 73 -676 l 1
EndSplineSet
EndChar

StartChar: radical.tex.big2
Encoding: 213 -1 213
Width: 820
Flags: HW
HStem: 0 56<820 852>
LayerCount: 2
Fore
SplineSet
86 -829 m 1
 77 -798 l 1
 230 -753 l 1
 408 -1356 l 1
 768 56 l 1
 852 56 l 1
 852 0 l 1
 820 0 l 1
 426 -1516 l 1
 364 -1534 l 1
 151 -810 l 1
 86 -829 l 1
EndSplineSet
EndChar

StartChar: radical.tex.big3
Encoding: 214 -1 214
Width: 892
Flags: HW
HStem: 0 56<892 924>
LayerCount: 2
Fore
SplineSet
100 -984 m 1
 91 -953 l 1
 246 -912 l 1
 441 -1656 l 1
 839 56 l 1
 924 56 l 1
 924 0 l 1
 892 0 l 1
 458 -1836 l 1
 396 -1852 l 1
 164 -966 l 1
 100 -984 l 1
EndSplineSet
EndChar

StartChar: radical.tex.big4
Encoding: 215 -1 215
Width: 1036
Flags: HW
HStem: 0 56<1036 1068>
LayerCount: 2
Fore
SplineSet
129 -1296 m 1
 122 -1265 l 1
 278 -1230 l 1
 507 -2263 l 1
 982 56 l 1
 1068 56 l 1
 1068 0 l 1
 1036 0 l 1
 523 -2474 l 1
 460 -2488 l 1
 194 -1281 l 1
 129 -1296 l 1
EndSplineSet
EndChar

StartChar: radical.tex.big5
Encoding: 216 -1 216
Width: 1180
Flags: HW
HStem: 0 56<1180 1212>
LayerCount: 2
Fore
SplineSet
159 -1610 m 1
 153 -1579 l 1
 310 -1548 l 1
 572 -2877 l 1
 1126 56 l 1
 1212 56 l 1
 1212 0 l 1
 1180 0 l 1
 587 -3112 l 1
 524 -3124 l 1
 224 -1598 l 1
 159 -1610 l 1
EndSplineSet
EndChar

StartChar: radical.tex.top
Encoding: 217 -1 217
Width: 1180
Flags: HW
HStem: 0 56<588 1208>
VStem: 524 64<-612 0>
LayerCount: 2
Fore
SplineSet
588 -612 m 1
 524 -612 l 1
 524 56 l 1
 1208 56 l 1
 1208 0 l 1
 588 0 l 1
 588 -612 l 1
EndSplineSet
EndChar

StartChar: uni23B7.tex
Encoding: 218 -1 218
Width: 1180
Flags: HW
VStem: 524 64<-1113 32>
LayerCount: 2
Fore
SplineSet
107 -730 m 1
 90 -703 l 1
 227 -620 l 1
 524 -1113 l 1
 524 32 l 1
 588 32 l 1
 588 -1233 l 1
 524 -1272 l 1
 173 -690 l 1
 107 -730 l 1
EndSplineSet
EndChar

StartChar: radical.ex
Encoding: 219 -1 219
Width: 1180
Flags: HW
VStem: 524 64<109 491>
LayerCount: 2
Fore
SplineSet
524 491 m 1
 588 491 l 1
 588 109 l 1
 524 109 l 1
 524 491 l 1
EndSplineSet
EndChar

StartChar: radical
Encoding: 220 8730 220
Width: 700
Flags: HW
HStem: -230 21G<303.097 363.174> 774 56<700 732>
LayerCount: 2
Fore
SplineSet
66 198 m 1
 55 227 l 1
 204 286 l 1
 351 -89 l 1
 651 830 l 1
 732 830 l 1
 732 774 l 1
 700 774 l 1
 371 -207 l 1
 311 -230 l 1
 132 223 l 1
 66 198 l 1
EndSplineSet
EndChar

StartChar: radical.big1
Encoding: 221 -1 221
Width: 748
Flags: HW
HStem: 880 56<748 780>
LayerCount: 2
Fore
SplineSet
73 204 m 1
 63 234 l 1
 214 286 l 1
 374 -179 l 1
 698 936 l 1
 780 936 l 1
 780 880 l 1
 748 880 l 1
 393 -315 l 1
 332 -336 l 1
 139 226 l 1
 73 204 l 1
EndSplineSet
EndChar

StartChar: radical.big2
Encoding: 222 -1 222
Width: 820
Flags: HW
HStem: 1039 56<820 852>
LayerCount: 2
Fore
SplineSet
86 210 m 1
 77 241 l 1
 230 286 l 1
 408 -317 l 1
 768 1095 l 1
 852 1095 l 1
 852 1039 l 1
 820 1039 l 1
 426 -477 l 1
 364 -495 l 1
 151 229 l 1
 86 210 l 1
EndSplineSet
EndChar

StartChar: radical.big3
Encoding: 223 -1 223
Width: 892
Flags: HW
HStem: 1198 56<892 924>
LayerCount: 2
Fore
SplineSet
100 215 m 1
 91 245 l 1
 246 286 l 1
 441 -458 l 1
 839 1254 l 1
 924 1254 l 1
 924 1198 l 1
 892 1198 l 1
 458 -638 l 1
 396 -654 l 1
 164 232 l 1
 100 215 l 1
EndSplineSet
EndChar

StartChar: radical.big4
Encoding: 224 -1 224
Width: 1036
Flags: HW
HStem: 1516 56<1036 1068>
LayerCount: 2
Fore
SplineSet
129 220 m 1
 122 251 l 1
 278 286 l 1
 507 -747 l 1
 982 1572 l 1
 1068 1572 l 1
 1068 1516 l 1
 1036 1516 l 1
 523 -958 l 1
 460 -972 l 1
 194 235 l 1
 129 220 l 1
EndSplineSet
EndChar

StartChar: radical.big5
Encoding: 225 -1 225
Width: 1180
Flags: HW
HStem: 1834 56<1180 1212>
LayerCount: 2
Fore
SplineSet
159 224 m 1
 153 255 l 1
 310 286 l 1
 572 -1043 l 1
 1126 1890 l 1
 1212 1890 l 1
 1212 1834 l 1
 1180 1834 l 1
 587 -1278 l 1
 524 -1290 l 1
 224 236 l 1
 159 224 l 1
EndSplineSet
EndChar

StartChar: radical.top
Encoding: 226 -1 226
Width: 1180
Flags: HW
HStem: 580 56<588 1208>
VStem: 524 64<-32 580>
LayerCount: 2
Fore
SplineSet
588 -32 m 1
 524 -32 l 1
 524 636 l 1
 1208 636 l 1
 1208 580 l 1
 588 580 l 1
 588 -32 l 1
EndSplineSet
EndChar

StartChar: uni23B7
Encoding: 227 9143 227
Width: 1180
Flags: HW
HStem: 0 21G<511.938 556.821>
VStem: 524 64<159 1304>
LayerCount: 2
Fore
SplineSet
107 542 m 1
 90 569 l 1
 227 652 l 1
 524 159 l 1
 524 1304 l 1
 588 1304 l 1
 588 39 l 1
 524 0 l 1
 173 582 l 1
 107 542 l 1
EndSplineSet
EndChar
